# Blender v2.81 (sub 16) OBJ File: 'house.blend'
# www.blender.org
o 7_Face
v 3.181791 2.660381 -15.908259
v 3.178637 2.753187 -15.907819
v 3.205175 2.675659 -15.908235
v 2.966028 3.049924 -15.906017
v 3.060589 3.112542 -15.905899
v 2.951667 2.982389 -15.906313
v 2.840943 2.982919 -15.906103
v 2.900049 2.956544 -15.906340
v 3.150820 2.991276 -15.906639
v 3.080873 3.035486 -15.906303
v 3.132227 2.977401 -15.906670
v 3.201565 2.723193 -15.908006
v 3.210592 2.699497 -15.908128
v 3.081735 2.835406 -15.907248
v 3.139297 2.790172 -15.907571
v 3.068375 3.044655 -15.906240
v 3.056763 3.043817 -15.906218
v 3.038350 3.034970 -15.906223
v 3.135461 2.680888 -15.908078
v 3.088696 2.764589 -15.907594
v 3.160938 2.661280 -15.908219
v 2.992474 2.897020 -15.906796
v 3.019044 2.839639 -15.907115
v 2.849658 2.968304 -15.906195
v 3.131474 2.688135 -15.871514
v 3.183719 2.660783 -15.871739
v 3.210983 2.694671 -15.871629
v 3.181946 2.749486 -15.871320
v 3.085442 3.030625 -15.869814
v 3.150887 2.991101 -15.870119
v 3.059999 3.113391 -15.869373
v 3.132291 2.977230 -15.870148
v 3.072483 3.042299 -15.869732
v 3.204033 2.718809 -15.871505
v 3.204021 2.674468 -15.871715
v 3.142855 2.787012 -15.871068
v 3.085544 2.832508 -15.870749
v 3.064307 3.045020 -15.869705
v 3.016127 3.080873 -15.869444
v 3.053331 3.042401 -15.869694
v 3.033703 3.031859 -15.869709
v 3.155247 2.662640 -15.871678
v 3.021934 2.836993 -15.870608
v 2.996301 2.894351 -15.870290
v 3.090902 2.761435 -15.871095
v 2.915124 2.920693 -15.870015
v 2.900133 2.956377 -15.869820
v 2.937433 3.033373 -15.869522
v 2.849923 2.966885 -15.869673
v 2.840582 2.983085 -15.869585
v 2.937331 2.974788 -15.869802
v 1.943830 5.404542 -13.868578
v 3.040863 2.299017 -13.868579
v 3.562820 2.600369 -13.868579
v 1.421873 5.103190 -16.053673
v 3.040863 2.299017 -13.868579
v 1.421877 5.103192 -13.868578
v 3.562820 2.600370 -16.053673
v 1.943830 5.404542 -13.868578
v 3.562820 2.600369 -13.868579
v 1.421877 5.103192 -13.868578
v 3.040863 2.299018 -16.053673
v 1.943830 5.404542 -16.053673
v 2.018150 5.275817 -15.876305
v 1.496193 4.974465 -13.891834
v 2.018150 5.275817 -13.891828
v 3.488501 2.729096 -15.876306
v 1.496193 4.974465 -15.876305
v 3.488501 2.729095 -13.891835
v 2.966543 2.427744 -15.876306
v 2.966543 2.427743 -13.891835
vt 0.516744 0.420862
vt 0.517828 0.419323
vt 0.517315 0.420896
vt 0.517962 0.411963
vt 0.520283 0.412088
vt 0.516900 0.412882
vt 0.515086 0.411541
vt 0.515735 0.412679
vt 0.520283 0.415136
vt 0.519674 0.413579
vt 0.519808 0.415137
vt 0.517838 0.420084
vt 0.517696 0.420576
vt 0.517240 0.416826
vt 0.517633 0.418251
vt 0.519580 0.413280
vt 0.519379 0.413154
vt 0.518968 0.413075
vt 0.516233 0.419973
vt 0.516488 0.418055
vt 0.516412 0.420596
vt 0.516526 0.414755
vt 0.516261 0.416003
vt 0.515050 0.411882
vt 0.511028 0.412635
vt 0.511553 0.411564
vt 0.512415 0.411784
vt 0.512608 0.413021
vt 0.514457 0.418732
vt 0.515050 0.417305
vt 0.515050 0.420377
vt 0.514575 0.417304
vt 0.514387 0.419076
vt 0.512596 0.412259
vt 0.512054 0.411541
vt 0.512424 0.414098
vt 0.512037 0.415524
vt 0.514285 0.419219
vt 0.513931 0.420379
vt 0.514073 0.419308
vt 0.513621 0.419374
vt 0.511107 0.411936
vt 0.511045 0.416362
vt 0.511325 0.417598
vt 0.511256 0.414309
vt 0.510312 0.419001
vt 0.510501 0.419759
vt 0.512056 0.420556
vt 0.509804 0.420533
vt 0.509848 0.420907
vt 0.511338 0.419609
vt 0.514222 0.421646
vt 0.513473 0.423575
vt 0.513473 0.421534
vt 0.514222 0.423902
vt 0.514222 0.424738
vt 0.513473 0.424739
vt 0.469628 0.422811
vt 0.468879 0.422942
vt 0.468879 0.422592
vt 0.513473 0.421123
vt 0.514222 0.420976
vt 0.514222 0.421197
vt 0.469628 0.422505
vt 0.468879 0.422442
vt 0.513473 0.420907
vt 0.469628 0.424374
vt 0.468880 0.424374
vt 0.447482 0.423913
vt 0.447482 0.424650
vt 0.447012 0.424650
vt 0.447012 0.423913
vt 0.514222 0.423968
vt 0.514970 0.420907
vt 0.514970 0.423968
vt 0.514222 0.420932
vt 0.545754 0.421161
vt 0.545005 0.421826
vt 0.545005 0.418968
vt 0.545754 0.418965
vt 0.545754 0.423014
vt 0.545005 0.424111
vt 0.545754 0.424110
vt 0.838385 0.608693
vt 0.837636 0.608715
vt 0.837636 0.608345
vt 0.838385 0.608356
vt 0.837636 0.612973
vt 0.838384 0.612898
vt 0.838384 0.614962
vt 0.837636 0.615035
vt 0.838385 0.616852
vt 0.837636 0.610283
vt 0.670262 0.817140
vt 0.669513 0.819275
vt 0.669513 0.817140
vt 0.670262 0.819363
vt 0.669513 0.821399
vt 0.670262 0.821490
vt 0.669513 0.822852
vt 0.670262 0.822944
vt 0.670262 0.824033
vt 0.669513 0.823936
vt 0.670262 0.824791
vt 0.669513 0.824696
vt 0.669513 0.825174
vt 0.670262 0.825248
vt 0.447012 0.423951
vt 0.446263 0.424233
vt 0.446264 0.423913
vt 0.447012 0.424755
vt 0.446263 0.424794
vt 0.447012 0.424265
vt 0.447012 0.425246
vt 0.446264 0.425158
vt 0.837636 0.617388
vt 0.838385 0.617488
vt 0.837636 0.616685
vt 0.428955 0.915129
vt 0.416603 0.849837
vt 0.428955 0.849837
vt 0.723077 0.361352
vt 0.678296 0.425367
vt 0.678296 0.361357
vt 0.723077 0.425314
vt 0.767858 0.361373
vt 0.767858 0.425335
vt 0.416603 0.915129
vt 0.723077 0.425362
vt 0.723077 0.361352
vt 0.837600 0.867146
vt 0.849950 0.907162
vt 0.837600 0.907163
vt 0.428955 0.849837
vt 0.441306 0.909135
vt 0.428955 0.909135
vt 0.849949 0.867147
vt 0.862291 0.907162
vt 0.849950 0.907164
vt 0.849950 0.867146
vt 0.441306 0.849837
vt 0.862291 0.867146
vn -0.0019 0.0047 -1.0000
vn -0.0019 0.0048 -1.0000
vn -0.0018 0.0050 -1.0000
vn -0.0018 0.0049 -1.0000
vn -0.0018 0.0047 -1.0000
vn -0.0018 0.0048 -1.0000
vn -0.0024 0.0045 -1.0000
vn -0.0016 0.0048 -1.0000
vn -0.0016 0.0046 -1.0000
vn -0.0017 0.0044 -1.0000
vn -0.0020 0.0048 -1.0000
vn -0.0019 0.0046 -1.0000
vn -0.0017 0.0050 -1.0000
vn -0.0016 0.0047 -1.0000
vn 0.0018 -0.0047 1.0000
vn 0.0019 -0.0048 1.0000
vn 0.0019 -0.0047 1.0000
vn 0.0019 -0.0046 1.0000
vn 0.0020 -0.0047 1.0000
vn 0.0020 -0.0045 1.0000
vn 0.0023 -0.0050 1.0000
vn 0.0018 -0.0056 1.0000
vn 0.0021 -0.0046 1.0000
vn 0.0018 -0.0048 1.0000
vn 0.0022 -0.0051 1.0000
vn 0.0018 -0.0046 1.0000
vn 0.0018 -0.0045 1.0000
vn 0.5186 -0.8550 -0.0068
vn 0.5095 -0.8602 0.0209
vn 0.4441 -0.8960 -0.0056
vn 0.4436 -0.8962 -0.0051
vn 0.4478 -0.8941 -0.0101
vn 0.4477 -0.8941 -0.0103
vn -0.6693 -0.7428 -0.0152
vn 0.2320 -0.9726 -0.0159
vn 0.4331 -0.9013 0.0058
vn 0.4732 -0.8809 -0.0148
vn -0.5914 -0.8062 0.0145
vn -0.3157 -0.9485 -0.0257
vn 0.0720 -0.9972 0.0180
vn -0.7512 -0.6600 -0.0004
vn -0.7497 -0.6618 0.0043
vn -0.7517 -0.6595 -0.0018
vn -0.7492 -0.6624 0.0056
vn 0.5980 -0.8015 -0.0049
vn 0.5979 -0.8016 -0.0049
vn 0.5981 -0.8014 -0.0048
vn 0.8024 0.5968 -0.0004
vn 0.8025 0.5966 0.0008
vn 0.8026 0.5965 0.0014
vn 0.8023 0.5969 -0.0009
vn -0.4720 0.8811 0.0298
vn -0.4608 0.8875 -0.0086
vn -0.5514 0.8327 0.0508
vn -0.5167 0.8560 -0.0166
vn -0.5952 0.8031 -0.0283
vn -0.8663 -0.4994 -0.0131
vn -0.8589 -0.5121 -0.0062
vn -0.7329 -0.6803 0.0087
vn -0.7386 -0.6741 -0.0136
vn -0.8746 -0.4849 0.0027
vn -0.8729 -0.4878 0.0106
vn -0.8733 -0.4871 0.0089
vn -0.6041 -0.7956 0.0461
vn -0.6168 -0.7871 -0.0082
vn -0.5780 -0.8156 -0.0275
vn 0.5420 0.8404 0.0041
vn 0.5418 0.8405 0.0033
vn 0.5415 0.8407 0.0026
vn 0.5420 0.8403 0.0046
vn 0.5693 0.8221 0.0048
vn 0.5684 0.8228 0.0017
vn 0.5681 0.8230 0.0006
vn 0.5696 0.8219 0.0058
vn 0.6211 0.7837 0.0057
vn 0.6186 0.7857 -0.0004
vn 0.6179 0.7863 -0.0021
vn 0.6218 0.7832 0.0072
vn 0.6925 0.7213 0.0104
vn 0.6850 0.7286 -0.0037
vn 0.8115 0.5842 0.0153
vn 0.7944 0.6073 -0.0104
vn 0.9343 0.3560 -0.0204
vn 0.9607 0.2765 0.0263
vn 0.9744 -0.2213 -0.0397
vn 0.5469 -0.8370 -0.0197
vn 0.5589 -0.8292 -0.0094
vn -0.0430 -0.9986 0.0305
vn -0.0650 -0.9978 0.0144
vn -0.6089 -0.7906 -0.0654
vn -0.7301 -0.6811 0.0554
vn -0.8749 -0.4843 0.0006
vn 0.9452 -0.3258 0.0192
vn -0.0000 -0.0000 1.0000
vn -0.8660 -0.5000 0.0000
vn 0.8660 0.5000 0.0000
vn -0.5000 0.8660 0.0000
vn 0.0000 0.0000 -1.0000
vn 0.5000 -0.8660 -0.0000
s 1
f 1/1/1 2/2/1 3/3/1
f 4/4/2 5/5/2 6/6/2
f 7/7/3 6/6/2 8/8/4
f 5/5/2 9/9/5 10/10/6
f 11/11/1 10/10/6 9/9/5
f 12/12/7 13/13/8 2/2/1
f 3/3/1 2/2/1 13/13/8
f 2/2/1 14/14/9 15/15/10
f 16/16/6 5/5/2 10/10/6
f 17/17/11 5/5/2 16/16/6
f 5/5/2 17/17/11 18/18/5
f 6/6/2 5/5/2 18/18/5
f 2/2/1 1/1/1 19/19/5
f 2/2/1 19/19/5 20/20/12
f 21/21/13 19/19/5 1/1/1
f 22/22/1 14/14/9 2/2/1
f 20/20/12 23/23/1 2/2/1
f 2/2/1 23/23/1 22/22/1
f 22/22/1 23/23/1 24/24/14
f 22/22/1 24/24/14 8/8/4
f 4/4/2 6/6/2 7/7/3
f 7/7/3 8/8/4 24/24/14
f 25/25/15 26/26/16 27/27/17
f 25/25/15 27/27/17 28/28/15
f 29/29/15 30/30/18 31/31/17
f 32/32/18 30/30/18 29/29/15
f 31/31/17 33/33/19 29/29/15
f 27/27/17 34/34/20 28/28/15
f 26/26/16 35/35/21 27/27/17
f 28/28/15 36/36/22 37/37/17
f 31/31/17 38/38/17 33/33/19
f 38/38/17 39/39/17 40/40/23
f 39/39/17 38/38/17 31/31/17
f 40/40/23 39/39/17 41/41/24
f 26/26/16 25/25/15 42/42/25
f 43/43/17 28/28/15 37/37/17
f 37/37/17 44/44/17 43/43/17
f 25/25/15 28/28/15 45/45/17
f 45/45/17 28/28/15 43/43/17
f 44/44/17 46/46/17 43/43/17
f 47/47/16 46/46/17 44/44/17
f 48/48/17 41/41/24 39/39/17
f 41/41/24 48/48/17 49/49/26
f 50/50/27 49/49/26 48/48/17
f 49/49/26 51/51/16 41/41/24
f 47/47/16 51/51/16 49/49/26
f 46/46/17 47/47/16 49/49/26
f 41/52/28 6/53/28 18/54/28
f 51/55/29 6/53/29 41/52/29
f 51/55/30 47/56/31 8/57/32
f 51/55/30 8/57/32 6/53/33
f 10/58/34 29/59/34 33/60/34
f 17/61/35 38/62/35 40/63/35
f 18/54/36 17/61/36 40/63/36
f 18/54/37 40/63/37 41/52/37
f 33/60/38 16/64/38 10/58/38
f 33/60/39 38/65/39 16/64/39
f 16/66/40 38/62/40 17/61/40
f 29/59/41 11/67/42 32/68/43
f 11/67/42 29/59/41 10/58/44
f 9/69/45 30/70/46 32/71/45
f 9/69/45 32/71/45 11/72/47
f 9/73/48 31/74/49 30/75/50
f 5/76/51 31/74/49 9/73/48
f 48/77/52 4/78/52 7/79/52
f 48/77/53 7/79/53 50/80/53
f 39/81/54 5/82/54 4/78/54
f 39/81/55 4/78/55 48/77/55
f 31/83/56 5/82/56 39/81/56
f 24/84/57 49/85/57 50/86/57
f 24/84/58 50/86/58 7/87/58
f 43/88/59 23/89/59 20/90/59
f 43/88/60 20/90/60 45/91/60
f 45/91/61 20/90/62 19/92/63
f 46/93/64 24/84/64 23/89/64
f 46/93/65 23/89/65 43/88/65
f 49/85/66 24/84/66 46/93/66
f 47/94/67 22/95/68 8/96/69
f 44/97/70 22/95/68 47/94/67
f 44/97/71 14/98/72 22/95/73
f 37/99/74 14/98/72 44/97/71
f 37/99/75 15/100/76 14/98/77
f 36/101/78 15/100/76 37/99/75
f 28/102/79 2/103/79 36/101/79
f 36/101/80 2/103/80 15/100/80
f 34/104/81 12/105/81 28/102/81
f 28/102/82 12/105/82 2/103/82
f 34/104/83 13/106/83 12/105/83
f 27/107/84 13/106/84 34/104/84
f 27/108/85 3/109/85 13/110/85
f 26/111/86 1/112/86 3/109/86
f 26/111/87 3/109/87 35/113/87
f 42/114/88 21/115/88 1/112/88
f 42/114/89 1/112/89 26/111/89
f 42/116/90 19/92/90 21/117/90
f 25/118/91 19/92/91 42/116/91
f 45/91/61 19/92/63 25/118/92
f 35/113/93 3/109/93 27/108/93
f 52/119/94 53/120/94 54/121/94
f 55/122/95 56/123/95 57/124/95
f 58/125/96 59/126/96 60/127/96
f 52/119/94 61/128/94 53/120/94
f 55/122/95 62/129/95 56/123/95
f 58/125/96 63/130/96 59/126/96
f 64/131/97 65/132/97 66/133/97
f 67/134/98 68/135/98 64/136/98
f 69/137/99 70/138/99 67/139/99
f 64/131/97 68/140/97 65/132/97
f 67/134/98 70/141/98 68/135/98
f 69/137/99 71/142/99 70/138/99
