# Blender v2.81 (sub 16) OBJ File: 'house.blend'
# www.blender.org
o Cube_Cube.001_Cube_Cube.001
v 21.037464 3.451972 9.928661
v 20.144096 4.035019 7.474148
v 20.144096 3.451973 7.474148
v 22.425621 4.035017 9.423414
v 21.037464 4.035019 9.928661
v 21.532253 3.451973 6.968902
v 21.532253 4.035017 6.968902
v 22.425621 3.451972 9.423414
v 22.345734 3.451972 9.355163
v 21.054790 4.035019 9.825028
v 21.054790 3.451972 9.825028
v 21.514927 3.451973 7.072538
v 22.345734 4.035017 9.355163
v 20.223984 3.451973 7.542404
v 21.514927 4.035017 7.072538
v 20.223984 4.035019 7.542404
vt 0.449236 0.678435
vt 0.469150 0.766220
vt 0.449236 0.766220
vt 0.273586 0.829350
vt 0.223129 0.917136
vt 0.223129 0.829350
vt 0.658393 0.818551
vt 0.607936 0.906337
vt 0.607936 0.818551
vt 0.469150 0.678435
vt 0.273586 0.917136
vt 0.658393 0.906337
vt 0.555039 0.843139
vt 0.574953 0.889310
vt 0.555039 0.889310
vt 0.124406 0.922849
vt 0.104491 0.841211
vt 0.124406 0.841211
vt 0.594868 0.889310
vt 0.574954 0.843139
vt 0.594868 0.843139
vt 0.574953 0.843139
vt 0.104491 0.922849
vt 0.574953 0.889310
vn -0.9397 0.0000 0.3420
vn 0.0000 1.0000 -0.0000
vn -0.0000 -1.0000 -0.0000
vn 0.3420 0.0000 0.9397
vn 0.9397 0.0000 -0.3420
vn -0.3420 0.0000 -0.9397
s 1
f 1/1/1 2/2/1 3/3/1
f 4/4/2 2/5/2 5/6/2
f 6/7/3 1/8/3 3/9/3
f 1/1/1 5/10/1 2/2/1
f 4/4/2 7/11/2 2/5/2
f 6/7/3 8/12/3 1/8/3
f 9/13/4 10/14/4 11/15/4
f 12/16/5 13/17/5 9/18/5
f 14/19/6 15/20/6 12/21/6
f 9/13/4 13/22/4 10/14/4
f 12/16/5 15/23/5 13/17/5
f 14/19/6 16/24/6 15/20/6
