# Blender v2.81 (sub 16) OBJ File: 'all_objects.blend'
# www.blender.org
o 20290_Keypad_handle_entry_v2.001
v 27.362770 6.202124 -18.432634
v 27.924358 6.172358 -18.259531
v 27.454678 6.172535 -18.259476
v 28.015594 6.201669 -18.432302
v 28.016479 6.319939 -18.181070
v 28.030861 8.090625 -18.431522
v 27.350754 8.092140 -18.255114
v 28.005241 8.063440 -18.190180
v 27.896564 7.794572 -18.190125
v 27.362629 6.321180 -18.182745
v 27.689915 6.208052 -18.174952
v 27.349117 8.090375 -18.431568
v 27.397291 8.039202 -18.174490
v 28.712374 6.536805 -17.836533
v 28.801294 6.710894 -17.919071
v 28.691414 6.726339 -17.780504
v 27.786663 6.720551 -17.868710
v 27.650078 6.517224 -18.084959
v 27.589664 6.560291 -17.775383
v 27.582392 6.625110 -18.095474
v 27.630684 6.731099 -17.768991
v 27.732403 6.770493 -18.093706
v 27.780256 6.602715 -18.093954
v 27.742138 6.527906 -17.864885
v 27.849632 6.508129 -18.106428
v 27.919641 6.678202 -18.222256
v 27.541847 6.466903 -18.106146
v 27.463367 6.544354 -18.233685
v 27.770412 6.434995 -18.233135
v 27.522619 6.754858 -18.101122
v 27.666485 6.859072 -18.233816
v 27.662304 7.625578 -18.227222
v 27.518621 7.630811 -18.149422
v 27.485638 7.684054 -18.230724
v 27.519207 7.737420 -18.149139
v 27.659315 7.745987 -18.191587
v 27.658335 7.630142 -18.149307
v 27.861336 7.630718 -18.149345
v 27.717443 7.626027 -18.227190
v 27.894331 7.682451 -18.231201
v 27.718393 7.742712 -18.227310
v 27.860891 7.737432 -18.149204
v 27.721800 7.738113 -18.149757
v 27.721626 7.630224 -18.149385
v 27.518803 7.465977 -18.149044
v 27.658365 7.465073 -18.149376
v 27.658167 7.573213 -18.149733
v 27.485950 7.514363 -18.231092
v 27.692039 7.524202 -18.230688
v 27.518902 7.572450 -18.149593
v 27.662298 7.295509 -18.227236
v 27.518951 7.300789 -18.148951
v 27.485415 7.353988 -18.230320
v 27.658318 7.408068 -18.149857
v 27.661694 7.412686 -18.227160
v 27.518965 7.407628 -18.149662
v 27.658442 7.300232 -18.149345
v 27.662304 7.130467 -18.227232
v 27.518646 7.135435 -18.149576
v 27.485685 7.188969 -18.230824
v 27.519104 7.242432 -18.149364
v 27.659296 7.250960 -18.191612
v 27.658260 7.135374 -18.148983
v 27.662304 6.965436 -18.227230
v 27.518961 6.970727 -18.148937
v 27.485435 7.023927 -18.230354
v 27.658337 7.078041 -18.149910
v 27.661678 7.082601 -18.227196
v 27.518980 7.077535 -18.149622
v 27.658451 6.970166 -18.149353
v 27.858368 7.466166 -18.148825
v 27.714880 7.460515 -18.227211
v 27.891846 7.519505 -18.230595
v 27.715555 7.577703 -18.227280
v 27.858484 7.572471 -18.149817
v 27.719116 7.573263 -18.149702
v 27.718824 7.464961 -18.149506
v 27.858383 7.301142 -18.148838
v 27.717236 7.292659 -18.191109
v 27.891651 7.352372 -18.230909
v 27.715551 7.412653 -18.227285
v 27.858465 7.407402 -18.149757
v 27.719109 7.408221 -18.149700
v 27.858376 7.136118 -18.148817
v 27.717264 7.127647 -18.191118
v 27.891817 7.187382 -18.230591
v 27.715538 7.247655 -18.227217
v 27.858425 7.242438 -18.149757
v 27.719067 7.243185 -18.149757
v 27.858387 6.971076 -18.148838
v 27.685722 7.025786 -18.231184
v 27.891792 7.022301 -18.230661
v 27.858494 7.077372 -18.149822
v 27.719112 7.078158 -18.149702
v 27.718853 6.969862 -18.149473
v 27.479218 7.796875 -18.190023
v 33.462582 13.401860 -18.423977
v 26.594772 0.690381 -18.423986
v 33.462582 0.690381 -18.423986
v 33.462582 14.077909 -19.138905
v 33.462582 0.014334 -18.460091
v 26.594772 14.077909 -19.138905
v 33.462582 14.077909 -18.460079
v 26.594772 14.077909 -18.460079
v 26.594772 13.401860 -19.175005
v 26.594772 0.014334 -19.138914
v 33.462582 0.690381 -19.175016
v 26.594772 0.690381 -19.175016
v 26.594772 0.014334 -19.138914
v 33.462582 0.104904 -19.156965
v 33.462582 0.014334 -19.138914
v 26.594772 0.104904 -19.156965
v 33.462582 0.352356 -19.170179
v 26.594772 0.352356 -19.170179
v 33.462582 0.690381 -19.175016
v 33.462582 14.077909 -19.138905
v 26.594772 13.987335 -19.156956
v 26.594772 14.077909 -19.138905
v 33.462582 13.987335 -19.156956
v 26.594772 13.739883 -19.170170
v 33.462582 13.739883 -19.170170
v 26.594772 13.401860 -19.175005
v 33.462582 0.014334 -18.460091
v 26.594772 0.104904 -18.442038
v 26.594772 0.014334 -18.460091
v 33.462582 0.104904 -18.442038
v 26.594772 0.352356 -18.428823
v 33.462582 0.352356 -18.428823
v 26.594772 0.690381 -18.423986
v 26.594772 14.077909 -18.460079
v 33.462582 13.987335 -18.442028
v 33.462582 14.077909 -18.460079
v 26.594772 13.987335 -18.442028
v 33.462582 13.739883 -18.428814
v 26.594772 13.739883 -18.428814
v 33.462582 13.401860 -18.423977
v 33.462582 0.014334 -19.138914
v 26.594772 0.014334 -18.460091
v 33.462582 0.104904 -19.156965
v 26.594772 0.104904 -19.156965
v 33.462582 0.352356 -19.170179
v 26.594772 0.352356 -19.170179
v 26.594772 0.690381 -19.175016
v 26.594772 13.987335 -19.156956
v 33.462582 13.987335 -19.156956
v 26.594772 13.739883 -19.170170
v 33.462582 13.739883 -19.170170
v 33.462582 13.401860 -19.175005
v 33.462582 13.401860 -19.175005
v 26.594772 0.104904 -18.442038
v 33.462582 0.104904 -18.442038
v 26.594772 0.352356 -18.428823
v 33.462582 0.352356 -18.428823
v 33.462582 0.690381 -18.423986
v 33.462582 13.987335 -18.442028
v 26.594772 13.987335 -18.442028
v 33.462582 13.739883 -18.428814
v 26.594772 13.739883 -18.428814
v 26.594772 13.401860 -18.423977
v 26.594772 13.401860 -18.423977
vt 0.000000 0.000000
vt 0.000000 0.000000
vt 0.000000 0.000000
vt 0.000000 0.000000
vt 0.000000 0.000000
vt 0.000000 0.000000
vt 0.000000 0.000000
vt 0.000000 0.000000
vt 0.000000 0.000000
vt 0.000000 0.000000
vt 0.000000 0.000000
vt 0.000000 0.000000
vt 0.000000 0.000000
vt 0.000000 0.000000
vt 0.000000 0.000000
vt 0.000000 0.000000
vt 0.000000 0.000000
vt 0.000000 0.000000
vt 0.000000 0.000000
vt 0.000000 0.000000
vt 0.000000 0.000000
vt 0.000000 0.000000
vt 0.000000 0.000000
vt 0.000000 0.000000
vt 0.000000 0.000000
vt 0.000000 0.000000
vt 0.000000 0.000000
vt 0.000000 0.000000
vt 0.000000 0.000000
vt 0.000000 0.000000
vt 0.000000 0.000000
vt 0.000000 0.000000
vt 0.000000 0.000000
vt 0.000000 0.000000
vt 0.000000 0.000000
vt 0.000000 0.000000
vt 0.000000 0.000000
vt 0.000000 0.000000
vt 0.000000 0.000000
vt 0.000000 0.000000
vt 0.000000 0.000000
vt 0.000000 0.000000
vt 0.000000 0.000000
vt 0.000000 0.000000
vt 0.000000 0.000000
vt 0.000000 0.000000
vt 0.000000 0.000000
vt 0.000000 0.000000
vt 0.000000 0.000000
vt 0.000000 0.000000
vt 0.000000 0.000000
vt 0.000000 0.000000
vt 0.000000 0.000000
vt 0.000000 0.000000
vt 0.000000 0.000000
vt 0.000000 0.000000
vt 0.000000 0.000000
vt 0.000000 0.000000
vt 0.000000 0.000000
vt 0.000000 0.000000
vt 0.000000 0.000000
vt 0.000000 0.000000
vt 0.000000 0.000000
vt 0.000000 0.000000
vt 0.993340 0.136228
vt 0.983203 0.165149
vt 0.983200 0.138281
vt 0.833472 0.841748
vt 0.847691 0.837885
vt 0.843820 0.844242
vt 0.732142 0.962625
vt 0.721934 0.990046
vt 0.718407 0.963359
vt 0.833472 0.732376
vt 0.847160 0.734858
vt 0.935866 0.268798
vt 0.907838 0.179134
vt 0.940124 0.179336
vt 0.978139 0.137777
vt 0.978126 0.151717
vt 0.465080 0.641163
vt 0.450900 0.746961
vt 0.450870 0.637944
vt 0.923999 0.173731
vt 0.938716 0.281812
vt 0.909691 0.282188
vt 0.466180 0.744025
vt 0.461071 0.746652
vt 0.202155 0.761577
vt 0.235206 0.761668
vt 0.235274 0.872422
vt 0.202036 0.872284
vt 0.447530 0.502308
vt 0.451048 0.510246
vt 0.443603 0.511089
vt 0.077708 0.660313
vt 0.077548 0.601572
vt 0.086829 0.605559
vt 0.356832 0.736076
vt 0.358426 0.718058
vt 0.361988 0.736234
vt 0.960715 0.246039
vt 0.942786 0.244482
vt 0.960820 0.240544
vt 0.365297 0.718112
vt 0.778897 0.157461
vt 0.777589 0.170200
vt 0.772751 0.157274
vt 0.940799 0.352879
vt 0.953871 0.354078
vt 0.940755 0.358652
vt 0.769568 0.170286
vt 0.958667 0.359244
vt 0.944757 0.181961
vt 0.947728 0.238727
vt 0.963462 0.918916
vt 0.964859 0.979228
vt 0.955090 0.918082
vt 0.474713 0.984884
vt 0.469075 0.978068
vt 0.476388 0.975063
vt 0.348944 0.729089
vt 0.341236 0.718885
vt 0.353801 0.721301
vt 0.763710 0.157858
vt 0.767288 0.163201
vt 0.757415 0.162790
vt 0.251851 0.982475
vt 0.244716 0.986623
vt 0.244655 0.975733
vt 0.969642 0.089852
vt 0.975423 0.086312
vt 0.976764 0.096588
vt 0.468322 0.970869
vt 0.473986 0.970870
vt 0.468272 0.987817
vt 0.250416 0.973180
vt 0.010761 0.970583
vt 0.010573 0.992422
vt 0.000929 0.982939
vt 0.784681 0.979259
vt 0.788762 0.986464
vt 0.784670 0.986849
vt 0.928887 0.977709
vt 0.926622 0.984870
vt 0.924815 0.977432
vt 0.748689 0.337954
vt 0.753618 0.345102
vt 0.748625 0.344837
vt 0.754194 0.337999
vt 0.807045 0.987390
vt 0.811220 0.980006
vt 0.811219 0.987539
vt 0.068113 0.977408
vt 0.072297 0.984532
vt 0.068104 0.985001
vt 0.939535 0.165235
vt 0.943519 0.170333
vt 0.939543 0.170770
vt 0.741973 0.337715
vt 0.747049 0.337985
vt 0.741671 0.344867
vt 0.740001 0.487335
vt 0.739858 0.494056
vt 0.734578 0.494286
vt 0.464208 0.980150
vt 0.460241 0.987266
vt 0.460237 0.979798
vt 0.981670 0.510432
vt 0.977470 0.517592
vt 0.977476 0.509985
vt 0.334698 0.988171
vt 0.330546 0.981152
vt 0.334700 0.980662
vt 0.584267 0.716930
vt 0.580267 0.722369
vt 0.580262 0.716865
vt 0.933648 0.977968
vt 0.929456 0.984974
vt 0.929461 0.977413
vt 0.734633 0.344780
vt 0.734633 0.337913
vt 0.740155 0.338000
vt 0.739853 0.344820
vt 0.707166 0.345776
vt 0.710339 0.337890
vt 0.713458 0.345812
vt 0.322263 0.988017
vt 0.318200 0.980559
vt 0.322259 0.980581
vt 0.081596 0.977774
vt 0.079306 0.984868
vt 0.077401 0.977342
vt 0.755441 0.487241
vt 0.760921 0.494050
vt 0.755529 0.494240
vt 0.340884 0.988186
vt 0.336731 0.981165
vt 0.340880 0.980976
vt 0.576072 0.722129
vt 0.580135 0.716680
vt 0.580144 0.722308
vt 0.986359 0.510455
vt 0.982110 0.517554
vt 0.982122 0.510004
vt 0.741544 0.494117
vt 0.741539 0.487409
vt 0.747213 0.487611
vt 0.746634 0.494167
vt 0.800788 0.987082
vt 0.805047 0.980376
vt 0.805045 0.987885
vt 0.063468 0.977399
vt 0.067607 0.984324
vt 0.063458 0.985001
vt 0.953387 0.165190
vt 0.957582 0.170441
vt 0.953404 0.170792
vt 0.725690 0.494121
vt 0.720488 0.494274
vt 0.720550 0.487560
vt 0.725702 0.487427
vt 0.315499 0.981133
vt 0.313452 0.988049
vt 0.311549 0.980904
vt 0.072757 0.977400
vt 0.076638 0.984434
vt 0.072747 0.985001
vt 0.969319 0.379451
vt 0.971576 0.384557
vt 0.967404 0.384940
vt 0.727393 0.487140
vt 0.732806 0.487432
vt 0.732962 0.494213
vt 0.727159 0.493840
vt 0.615010 0.986743
vt 0.617198 0.979853
vt 0.619097 0.987239
vt 0.082045 0.977422
vt 0.086083 0.984494
vt 0.082036 0.985002
vt 0.326024 0.981151
vt 0.328353 0.986264
vt 0.324165 0.986601
vt 0.696413 0.495121
vt 0.699720 0.487211
vt 0.702729 0.495175
vt 0.748610 0.487358
vt 0.753837 0.487210
vt 0.754052 0.493973
vt 0.748350 0.494029
vt 0.346733 0.981206
vt 0.342491 0.987782
vt 0.342483 0.980586
vt 0.934102 0.977484
vt 0.938207 0.984853
vt 0.934094 0.985055
vt 0.727994 0.337665
vt 0.732859 0.337686
vt 0.732800 0.344775
vt 0.727464 0.344822
vt 0.993423 0.165380
vt 0.732166 0.990230
vt 0.461229 0.634906
vt 0.935762 0.163810
vt 0.935667 0.110811
vt 0.958941 0.163651
vt 0.912151 0.268922
vt 0.716808 0.989059
vt 0.978141 0.165710
vt 0.087771 0.660989
vt 0.952009 0.177871
vt 0.955395 0.979222
vt 0.954239 0.297304
vt 0.342322 0.726603
vt 0.348080 0.734177
vt 0.338267 0.732191
vt 0.969840 0.101388
vt 0.476554 0.978987
vt 0.483675 0.974740
vt 0.483239 0.983007
vt 0.022719 0.982789
vt 0.788805 0.979717
vt 0.823347 0.531189
vt 0.821117 0.525862
vt 0.825175 0.525662
vt 0.944161 0.168017
vt 0.948206 0.165382
vt 0.948149 0.170524
vt 0.236804 0.621584
vt 0.233725 0.613612
vt 0.240030 0.613656
vt 0.807122 0.980334
vt 0.239427 0.737560
vt 0.239500 0.732541
vt 0.243518 0.734856
vt 0.071956 0.977548
vt 0.943715 0.165580
vt 0.746899 0.345046
vt 0.231922 0.621564
vt 0.225638 0.621485
vt 0.228943 0.613551
vt 0.464444 0.986877
vt 0.925182 0.736174
vt 0.925052 0.731290
vt 0.929318 0.733771
vt 0.981672 0.516925
vt 0.980204 0.930328
vt 0.984524 0.928198
vt 0.984398 0.933004
vt 0.734388 0.487228
vt 0.330510 0.987702
vt 0.584343 0.722062
vt 0.933422 0.984757
vt 0.948774 0.167921
vt 0.952962 0.165590
vt 0.952967 0.170492
vt 0.760860 0.487350
vt 0.318133 0.987627
vt 0.827865 0.531102
vt 0.825610 0.526088
vt 0.829796 0.525659
vt 0.883782 0.984834
vt 0.888085 0.982482
vt 0.887973 0.987296
vt 0.715584 0.495193
vt 0.712468 0.487288
vt 0.718762 0.487267
vt 0.336697 0.987541
vt 0.575972 0.717020
vt 0.985993 0.517297
vt 0.872426 0.961344
vt 0.876619 0.959022
vt 0.876651 0.963854
vt 0.702332 0.345818
vt 0.699216 0.337909
vt 0.705499 0.337956
vt 0.800959 0.980554
vt 0.935269 0.170395
vt 0.935181 0.165493
vt 0.939431 0.167974
vt 0.067653 0.977999
vt 0.957469 0.165428
vt 0.697510 0.345804
vt 0.691125 0.345787
vt 0.694337 0.337862
vt 0.933480 0.730705
vt 0.933462 0.736121
vt 0.929428 0.733762
vt 0.077004 0.977796
vt 0.694725 0.495190
vt 0.688415 0.495120
vt 0.691736 0.487223
vt 0.830187 0.530882
vt 0.830190 0.526193
vt 0.834420 0.528391
vt 0.086203 0.977908
vt 0.346800 0.987040
vt 0.934304 0.736108
vt 0.934330 0.731173
vt 0.938561 0.733533
vt 0.938110 0.977682
vt 0.949422 0.982819
vt 0.953384 0.980170
vt 0.953377 0.985367
vn 0.0000 -0.0000 1.0000
vn 1.0000 -0.0000 0.0000
vn 0.0000 1.0000 0.0000
vn -1.0000 0.0000 0.0000
vn 0.0000 0.0000 -1.0000
vn 0.0000 -0.1955 -0.9807
vn 0.0000 -0.0533 -0.9986
vn 0.0000 -0.0143 -0.9999
vn 0.0000 0.1955 -0.9807
vn 0.0000 0.0533 -0.9986
vn 0.0000 0.0143 -0.9999
vn 0.0000 -0.1955 0.9807
vn 0.0000 -0.0533 0.9986
vn 0.0000 -0.0143 0.9999
vn 0.0000 0.1955 0.9807
vn 0.0000 0.0533 0.9986
vn 0.0000 0.0143 0.9999
vn 0.0000 -1.0000 -0.0000
vn -0.6126 -0.5601 -0.5577
vn 0.3149 -0.8849 0.3433
vn -0.3160 -0.8824 0.3486
vn 0.6113 -0.5602 -0.5590
vn 0.6850 -0.2273 0.6922
vn 0.6073 0.5978 -0.5233
vn -0.6684 0.6798 0.3019
vn 0.5580 0.5382 0.6317
vn 0.0009 -0.0035 1.0000
vn -0.6866 -0.2242 0.6916
vn -0.0036 -0.5278 0.8494
vn -0.5829 0.5720 -0.5771
vn -0.3925 0.3614 0.8458
vn 0.4375 -0.8958 0.0783
vn 0.8180 0.3036 -0.4886
vn 0.3335 0.5774 0.7453
vn 0.4228 0.8382 -0.3444
vn -0.1936 -0.7976 -0.5713
vn -0.6443 -0.4566 0.6135
vn -0.5681 0.0146 0.8228
vn -0.4640 0.6213 0.6314
vn 0.3464 0.8339 0.4297
vn 0.6301 -0.1871 0.7536
vn 0.2566 -0.9648 -0.0580
vn 0.6444 -0.4702 0.6030
vn 0.9033 0.2646 -0.3377
vn -0.4646 -0.6939 0.5501
vn -0.8244 -0.2560 -0.5048
vn 0.2727 -0.8031 -0.5298
vn -0.6827 0.5147 0.5186
vn -0.0398 0.8857 -0.4625
vn 0.5647 -0.5400 -0.6241
vn -0.5259 -0.6814 0.5091
vn -0.7753 0.0264 -0.6310
vn -0.4632 0.7240 0.5112
vn 0.6138 0.7864 -0.0693
vn 0.5808 -0.4934 0.6475
vn 0.5225 -0.6806 0.5137
vn -0.5614 -0.6128 -0.5561
vn 0.8000 -0.0120 -0.5999
vn -0.5511 0.6182 -0.5604
vn 0.5246 0.6828 0.5086
vn -0.5642 0.5645 0.6026
vn -0.5627 -0.5628 0.6054
vn -0.4616 -0.7543 0.4669
vn 0.4713 -0.7681 0.4335
vn 0.4537 0.7649 0.4573
vn -0.7315 -0.0382 -0.6808
vn 0.7345 0.0440 -0.6772
vn -0.4725 0.7672 0.4338
vn 0.5575 -0.6149 -0.5577
vn -0.5226 -0.6802 0.5140
vn -0.8047 -0.0020 -0.5937
vn 0.5651 0.5637 0.6025
vn 0.5524 0.6163 -0.5612
vn -0.5225 0.6851 0.5076
vn 0.5644 -0.5601 0.6064
vn 0.5652 -0.5411 -0.6227
vn -0.5263 -0.6829 0.5066
vn -0.7750 0.0268 -0.6314
vn -0.4647 0.7244 0.5092
vn 0.6137 0.7864 -0.0702
vn 0.5808 -0.4896 0.6503
vn 0.5558 -0.6150 -0.5594
vn -0.5224 -0.6799 0.5145
vn -0.8042 -0.0023 -0.5944
vn 0.5651 0.5641 0.6020
vn 0.5516 0.6170 -0.5613
vn -0.5224 0.6848 0.5081
vn 0.5644 -0.5600 0.6065
vn 0.5237 -0.6784 0.5152
vn -0.5576 -0.6161 -0.5563
vn 0.8030 0.0023 -0.5960
vn -0.5537 0.6158 -0.5605
vn 0.5235 0.6843 0.5077
vn -0.5630 0.5652 0.6030
vn -0.5638 -0.5632 0.6041
vn 0.4630 -0.7181 0.5195
vn -0.6196 -0.7824 -0.0627
vn 0.7722 -0.0407 -0.6341
vn -0.5599 0.5416 -0.6271
vn 0.5268 0.6853 0.5028
vn -0.5799 0.4976 0.6450
vn 0.4624 -0.7186 0.5195
vn -0.6199 -0.7821 -0.0634
vn 0.7742 -0.0394 -0.6317
vn -0.5596 0.5418 -0.6271
vn 0.5259 0.6860 0.5028
vn -0.5808 0.4969 0.6448
vn 0.4559 -0.7660 0.4531
vn -0.7273 0.0100 -0.6862
vn 0.7296 -0.0177 -0.6837
vn 0.4651 0.7703 0.4364
vn -0.4571 0.7699 0.4452
vn -0.4594 -0.7759 0.4325
vn 0.0714 -0.0217 0.9972
s off
f 97/1/1 98/2/1 99/3/1
f 100/4/2 97/1/2 101/5/2
f 102/6/3 103/7/3 100/4/3
f 104/8/4 105/9/4 106/10/4
f 105/9/5 107/11/5 108/12/5
f 109/13/6 110/14/6 111/15/6
f 112/16/7 113/17/7 110/14/7
f 114/18/8 115/19/8 113/17/8
f 116/20/9 117/21/9 118/22/9
f 119/23/10 120/24/10 117/21/10
f 121/25/11 122/26/11 120/24/11
f 123/27/12 124/28/12 125/29/12
f 126/30/13 127/31/13 124/28/13
f 128/32/14 129/33/14 127/31/14
f 130/34/15 131/35/15 132/36/15
f 133/37/16 134/38/16 131/35/16
f 135/39/17 136/40/17 134/38/17
f 137/41/18 138/42/18 106/10/18
f 111/15/1 139/43/1 137/41/1
f 109/13/1 137/41/1 106/10/1
f 112/16/1 106/10/1 140/44/1
f 110/14/1 141/45/1 139/43/1
f 114/18/1 140/44/1 142/46/1
f 113/17/1 107/11/1 141/45/1
f 143/47/1 142/46/1 108/12/1
f 115/19/1 108/12/1 107/11/1
f 118/22/1 144/48/1 102/6/1
f 116/20/1 102/6/1 100/4/1
f 119/23/1 100/4/1 145/49/1
f 117/21/1 146/50/1 144/48/1
f 121/25/1 145/49/1 147/51/1
f 120/24/1 105/9/1 146/50/1
f 148/52/1 147/51/1 149/53/1
f 122/26/1 149/53/1 105/9/1
f 125/29/1 150/54/1 138/42/1
f 123/27/1 138/42/1 101/5/1
f 126/30/1 101/5/1 151/55/1
f 124/28/1 152/56/1 150/54/1
f 128/32/1 151/55/1 153/57/1
f 127/31/1 98/2/1 152/56/1
f 154/58/1 153/57/1 99/3/1
f 129/33/1 99/3/1 98/2/1
f 132/36/1 155/59/1 103/7/1
f 130/34/1 103/7/1 104/8/1
f 133/37/1 104/8/1 156/60/1
f 131/35/1 157/61/1 155/59/1
f 135/39/1 156/60/1 158/62/1
f 134/38/1 97/1/1 157/61/1
f 159/63/1 158/62/1 160/64/1
f 136/40/1 160/64/1 97/1/1
f 97/1/1 160/64/1 98/2/1
f 101/5/2 137/41/2 107/11/2
f 137/41/2 139/43/2 107/11/2
f 139/43/2 141/45/2 107/11/2
f 107/11/2 149/53/2 100/4/2
f 149/53/2 147/51/2 100/4/2
f 147/51/2 145/49/2 100/4/2
f 100/4/2 103/7/2 97/1/2
f 103/7/2 155/59/2 97/1/2
f 155/59/2 157/61/2 97/1/2
f 97/1/2 99/3/2 101/5/2
f 99/3/2 153/57/2 101/5/2
f 153/57/2 151/55/2 101/5/2
f 101/5/2 107/11/2 100/4/2
f 102/6/3 104/8/3 103/7/3
f 106/10/4 138/42/4 98/2/4
f 138/42/4 150/54/4 98/2/4
f 150/54/4 152/56/4 98/2/4
f 98/2/4 160/64/4 104/8/4
f 160/64/4 158/62/4 104/8/4
f 158/62/4 156/60/4 104/8/4
f 104/8/4 102/6/4 105/9/4
f 102/6/4 144/48/4 105/9/4
f 144/48/4 146/50/4 105/9/4
f 105/9/4 108/12/4 106/10/4
f 108/12/4 142/46/4 106/10/4
f 142/46/4 140/44/4 106/10/4
f 106/10/4 98/2/4 104/8/4
f 105/9/5 149/53/5 107/11/5
f 109/13/6 112/16/6 110/14/6
f 112/16/7 114/18/7 113/17/7
f 114/18/8 143/47/8 115/19/8
f 116/20/9 119/23/9 117/21/9
f 119/23/10 121/25/10 120/24/10
f 121/25/11 148/52/11 122/26/11
f 123/27/12 126/30/12 124/28/12
f 126/30/13 128/32/13 127/31/13
f 128/32/14 154/58/14 129/33/14
f 130/34/15 133/37/15 131/35/15
f 133/37/16 135/39/16 134/38/16
f 135/39/17 159/63/17 136/40/17
f 137/41/18 101/5/18 138/42/18
f 111/15/1 110/14/1 139/43/1
f 109/13/1 111/15/1 137/41/1
f 112/16/1 109/13/1 106/10/1
f 110/14/1 113/17/1 141/45/1
f 114/18/1 112/16/1 140/44/1
f 113/17/1 115/19/1 107/11/1
f 143/47/1 114/18/1 142/46/1
f 115/19/1 143/47/1 108/12/1
f 118/22/1 117/21/1 144/48/1
f 116/20/1 118/22/1 102/6/1
f 119/23/1 116/20/1 100/4/1
f 117/21/1 120/24/1 146/50/1
f 121/25/1 119/23/1 145/49/1
f 120/24/1 122/26/1 105/9/1
f 148/52/1 121/25/1 147/51/1
f 122/26/1 148/52/1 149/53/1
f 125/29/1 124/28/1 150/54/1
f 123/27/1 125/29/1 138/42/1
f 126/30/1 123/27/1 101/5/1
f 124/28/1 127/31/1 152/56/1
f 128/32/1 126/30/1 151/55/1
f 127/31/1 129/33/1 98/2/1
f 154/58/1 128/32/1 153/57/1
f 129/33/1 154/58/1 99/3/1
f 132/36/1 131/35/1 155/59/1
f 130/34/1 132/36/1 103/7/1
f 133/37/1 130/34/1 104/8/1
f 131/35/1 134/38/1 157/61/1
f 135/39/1 133/37/1 156/60/1
f 134/38/1 136/40/1 97/1/1
f 159/63/1 135/39/1 158/62/1
f 136/40/1 159/63/1 160/64/1
s 1
f 1/65/19 2/66/20 3/67/21
f 4/68/22 5/69/23 2/70/20
f 6/71/24 7/72/25 8/73/26
f 5/69/23 6/74/24 8/75/26
f 9/76/27 10/77/28 5/78/23
f 6/74/24 5/69/23 4/68/22
f 10/79/28 3/67/21 11/80/29
f 10/81/28 12/82/30 1/83/19
f 11/84/29 5/78/23 10/77/28
f 9/76/27 5/78/23 8/85/26
f 13/86/31 9/76/27 8/85/26
f 10/81/28 13/87/31 7/88/25
f 4/89/22 1/90/19 12/91/30
f 12/91/30 6/92/24 4/89/22
f 14/93/32 15/94/33 16/95/34
f 17/96/35 15/97/33 14/98/32
f 18/99/36 19/100/37 20/101/38
f 20/102/38 21/103/39 22/104/40
f 21/105/39 20/101/38 19/100/37
f 22/106/40 17/107/35 23/108/41
f 23/109/41 24/110/42 18/111/36
f 24/112/42 23/108/41 17/107/35
f 19/113/37 18/111/36 24/110/42
f 16/114/34 17/115/35 21/103/39
f 19/116/37 14/117/32 21/118/39
f 25/119/43 26/120/44 22/121/40
f 23/122/41 27/123/45 25/124/43
f 18/125/36 20/126/38 23/127/41
f 27/128/45 28/129/46 29/130/47
f 28/131/46 27/132/45 30/133/48
f 26/120/44 31/134/49 22/135/40
f 25/119/43 29/136/47 26/120/44
f 29/130/47 25/137/43 27/128/45
f 28/138/46 26/139/44 29/140/47
f 32/141/50 33/142/51 34/143/52
f 35/144/53 36/145/54 34/146/52
f 37/147/55 35/148/53 33/149/51
f 35/148/53 37/147/55 36/150/54
f 38/151/56 39/152/57 40/153/58
f 41/154/59 42/155/60 40/156/58
f 39/157/57 43/158/61 41/159/59
f 43/160/61 44/161/62 42/162/60
f 45/163/63 46/164/64 47/165/65
f 46/166/64 48/167/66 49/168/67
f 50/169/68 49/170/67 48/171/66
f 51/172/69 52/173/70 53/174/71
f 54/175/72 51/176/69 55/177/73
f 56/178/74 55/179/73 53/180/71
f 52/181/70 57/182/75 54/183/72
f 56/184/74 52/181/70 54/183/72
f 51/185/69 53/186/71 55/187/73
f 58/188/76 59/189/77 60/190/78
f 61/191/79 62/192/80 60/193/78
f 61/194/79 63/195/81 62/196/80
f 64/197/82 65/198/83 66/199/84
f 67/200/85 64/201/82 68/202/86
f 69/203/87 68/204/86 66/205/84
f 65/206/83 70/207/88 67/208/85
f 69/209/87 65/206/83 67/208/85
f 71/210/89 72/211/90 73/212/91
f 74/213/92 75/214/93 73/215/91
f 72/216/90 76/217/94 74/218/92
f 76/219/94 77/220/95 71/221/89
f 76/219/94 71/221/89 75/222/93
f 78/223/96 79/224/97 80/225/98
f 81/226/99 82/227/100 80/228/98
f 79/229/97 83/230/101 81/231/99
f 83/232/101 79/233/97 78/234/96
f 83/232/101 78/234/96 82/235/100
f 84/236/102 85/237/103 86/238/104
f 87/239/105 88/240/106 86/241/104
f 85/242/103 89/243/107 87/244/105
f 87/245/105 86/246/104 85/247/103
f 89/248/107 85/249/103 84/250/102
f 89/248/107 84/250/102 88/251/106
f 90/252/108 91/253/109 92/254/110
f 91/255/109 93/256/111 92/257/110
f 94/258/112 95/259/113 90/260/108
f 94/258/112 90/260/108 93/261/111
f 1/65/19 4/262/22 2/66/20
f 6/71/24 12/263/30 7/72/25
f 3/264/21 10/81/28 1/83/19
f 12/82/30 10/81/28 7/88/25
f 96/265/114 10/266/28 9/267/27
f 96/268/114 13/86/31 10/77/28
f 13/86/31 96/268/114 9/76/27
f 3/67/21 2/66/20 11/80/29
f 8/73/26 7/72/25 13/269/31
f 5/270/23 11/80/29 2/66/20
f 14/98/32 24/271/42 17/96/35
f 21/103/39 17/115/35 22/104/40
f 16/114/34 15/272/33 17/115/35
f 21/118/39 14/117/32 16/273/34
f 14/274/32 19/113/37 24/110/42
f 27/123/45 23/122/41 20/275/38
f 23/122/41 25/124/43 22/276/40
f 20/275/38 30/277/48 27/123/45
f 30/133/48 31/278/49 28/131/46
f 31/279/49 30/280/48 22/281/40
f 26/139/44 28/138/46 31/282/49
f 30/277/48 20/275/38 22/276/40
f 32/141/50 37/283/55 33/142/51
f 36/284/54 37/285/55 32/286/50
f 34/287/52 33/288/51 35/289/53
f 34/290/52 36/291/54 32/292/50
f 38/151/56 44/293/62 39/152/57
f 42/294/60 38/295/56 40/296/58
f 41/154/59 43/297/61 42/155/60
f 39/157/57 44/298/62 43/158/61
f 38/299/56 42/162/60 44/161/62
f 39/300/57 41/301/59 40/302/58
f 48/167/66 46/166/64 45/303/63
f 47/304/65 46/305/64 49/306/67
f 50/169/68 47/307/65 49/170/67
f 48/308/66 45/309/63 50/310/68
f 50/311/68 45/163/63 47/165/65
f 51/172/69 57/312/75 52/173/70
f 54/175/72 57/313/75 51/176/69
f 56/178/74 54/314/72 55/179/73
f 53/315/71 52/316/70 56/317/74
f 61/194/79 59/318/77 63/195/81
f 58/188/76 63/319/81 59/189/77
f 62/320/80 63/321/81 58/322/76
f 60/323/78 59/324/77 61/325/79
f 60/326/78 62/327/80 58/328/76
f 64/197/82 70/329/88 65/198/83
f 67/200/85 70/330/88 64/201/82
f 69/203/87 67/331/85 68/204/86
f 66/332/84 65/333/83 69/334/87
f 66/335/84 68/336/86 64/337/82
f 71/210/89 77/338/95 72/211/90
f 75/339/93 71/340/89 73/341/91
f 74/213/92 76/342/94 75/214/93
f 72/216/90 77/343/95 76/217/94
f 72/344/90 74/345/92 73/346/91
f 82/347/100 78/348/96 80/349/98
f 81/226/99 83/350/101 82/227/100
f 79/351/97 81/352/99 80/353/98
f 88/354/106 84/355/102 86/356/104
f 87/239/105 89/357/107 88/240/106
f 90/252/108 95/358/113 91/253/109
f 93/359/111 90/360/108 92/361/110
f 91/255/109 94/362/112 93/256/111
f 91/363/109 95/364/113 94/365/112
