# Blender v2.81 (sub 16) OBJ File: 'house.blend'
# www.blender.org
o frame.001_Cube.039
v 9.106012 13.394106 19.186745
v 9.106012 7.280838 19.186747
v 9.106012 7.280838 18.807608
v 4.481190 13.163963 18.807608
v 8.857733 13.163963 18.807608
v 8.857733 13.163963 19.177715
v 4.232913 13.394106 18.807608
v 4.232913 7.280838 18.807610
v 4.232913 7.280838 19.186747
v 4.232913 13.394106 19.186745
v 9.106012 13.394106 18.807608
v 8.857733 7.510980 18.807608
v 4.481190 7.510980 18.807610
v 8.857733 7.510980 19.177715
v 4.481190 7.510980 19.177717
v 4.481190 13.163963 19.177715
v 5.992094 9.425565 19.310743
v 5.867372 9.320229 19.310743
v 6.163258 9.115104 19.310743
v 5.737343 9.704129 19.310743
v 6.198940 9.629190 19.310743
v 5.915444 9.968705 19.310743
v 5.878323 11.271881 19.310743
v 6.118692 10.848521 19.310743
v 6.043288 11.510402 19.310743
v 7.311017 11.226958 19.310743
v 7.134921 10.622538 19.310743
v 7.298269 10.884718 19.310743
v 7.266640 9.327589 19.310743
v 6.689259 9.061981 19.310743
v 6.869218 9.293502 19.310743
v 6.309751 9.218952 19.310743
v 6.188871 9.919725 19.310743
v 5.914383 10.932454 19.310738
v 6.275997 11.153329 19.310740
v 6.138093 11.310892 19.310736
v 6.214684 11.452936 19.310743
v 6.224147 10.431808 19.310730
v 6.573836 10.401326 19.310747
v 6.300406 10.550997 19.310743
v 6.281260 10.965425 19.310743
v 6.745857 10.557499 19.310740
v 6.534373 11.547919 19.310747
v 6.321265 11.660164 19.310743
v 6.791763 11.679102 19.310743
v 7.027244 9.787755 19.310743
v 6.940605 10.246962 19.310743
v 6.846171 10.479782 19.310743
v 7.392328 10.079225 19.310743
v 6.944948 10.788794 19.310743
v 6.972139 11.229160 19.310743
v 6.828058 11.457948 19.310747
v 7.130703 11.520549 19.310743
v 5.840614 9.933442 19.184744
v 6.199301 9.919719 19.184744
v 5.770450 9.420150 19.184744
v 6.809834 10.470304 19.184744
v 6.293777 10.385702 19.184744
v 6.603838 10.531722 19.184744
v 7.124130 11.532256 19.184744
v 7.302123 11.245006 19.184744
v 7.308426 10.923582 19.184744
v 7.023002 9.160744 19.184744
v 7.380694 10.045281 19.184744
v 7.354931 9.491448 19.184744
v 6.060956 9.498270 19.184744
v 6.082009 9.323133 19.184744
v 6.376646 9.051498 19.184744
v 6.456282 9.203856 19.184744
v 6.881451 9.327889 19.184744
v 6.851407 10.333454 19.184744
v 6.033842 10.848948 19.184732
v 5.853336 11.084351 19.184744
v 6.270680 10.940336 19.184748
v 6.273435 11.145654 19.184727
v 6.152121 11.413536 19.184772
v 5.976351 11.451739 19.184744
v 6.239457 10.537136 19.184723
v 6.272195 11.642467 19.184744
v 6.618394 11.548857 19.184732
v 6.691037 11.692028 19.184744
v 7.039749 9.888257 19.184744
v 7.101433 10.371608 19.184744
v 6.926702 10.705549 19.184744
v 7.152837 10.637159 19.184744
v 6.966186 11.276805 19.184753
vt 0.943705 0.000007
vt 0.943705 0.176029
vt 0.932608 0.176022
vt 0.962840 0.962919
vt 0.962840 0.837114
vt 0.973665 0.837144
vt 0.937760 0.219555
vt 0.937760 0.395653
vt 0.926661 0.395653
vt 0.836016 0.000000
vt 0.836016 0.176104
vt 0.693348 0.176104
vt 0.669483 0.818582
vt 0.669483 0.958660
vt 0.658393 0.958629
vt 0.665626 0.425019
vt 0.665626 0.284722
vt 0.676720 0.284735
vt 0.828747 0.345579
vt 0.828747 0.182734
vt 0.836016 0.176104
vt 0.700616 0.345579
vt 0.836016 0.352209
vt 0.700616 0.182734
vt 0.693348 0.176104
vt 0.693348 0.352209
vt 0.952010 0.617556
vt 0.952010 0.780401
vt 0.823879 0.780401
vt 0.223120 0.425437
vt 0.223120 0.588276
vt 0.212285 0.588276
vt 0.948594 0.219562
vt 0.948594 0.382331
vt 0.937760 0.382324
vt 0.952010 0.963115
vt 0.952010 0.837114
vt 0.962840 0.837126
vt 0.932608 0.000000
vt 0.973665 0.962949
vt 0.926661 0.219555
vt 0.693348 0.000000
vt 0.658393 0.818551
vt 0.676720 0.425032
vt 0.823879 0.617556
vt 0.212285 0.425437
vt 0.937760 0.219555
vt 0.962840 0.963128
vt 0.312702 0.896070
vt 0.316062 0.899414
vt 0.306897 0.904536
vt 0.320860 0.888735
vt 0.307204 0.889694
vt 0.316361 0.880684
vt 0.320860 0.843391
vt 0.312741 0.854917
vt 0.316676 0.836121
vt 0.278966 0.840983
vt 0.282516 0.858779
vt 0.278441 0.850835
vt 0.275280 0.895593
vt 0.291420 0.904703
vt 0.286779 0.897596
vt 0.302897 0.901178
vt 0.308260 0.881384
vt 0.318919 0.853036
vt 0.308954 0.845766
vt 0.313388 0.841601
vt 0.311527 0.837328
vt 0.308574 0.866601
vt 0.298297 0.866573
vt 0.306663 0.862985
vt 0.308307 0.851144
vt 0.293691 0.861649
vt 0.302454 0.833778
vt 0.308963 0.831107
vt 0.295293 0.829350
vt 0.283467 0.883008
vt 0.287198 0.870056
vt 0.290562 0.863620
vt 0.273586 0.873703
vt 0.288492 0.854499
vt 0.288854 0.841794
vt 0.293655 0.835602
vt 0.284994 0.833025
vt 0.926126 0.817471
vt 0.915618 0.817590
vt 0.927430 0.802603
vt 0.898567 0.834306
vt 0.913534 0.831133
vt 0.904680 0.835778
vt 0.890923 0.865310
vt 0.885301 0.857301
vt 0.884648 0.848062
vt 0.890427 0.796934
vt 0.881256 0.822896
vt 0.881203 0.806924
vt 0.919049 0.805266
vt 0.918178 0.800258
vt 0.909167 0.792865
vt 0.907061 0.797362
vt 0.894809 0.801540
vt 0.897152 0.830428
vt 0.921809 0.844088
vt 0.927430 0.850602
vt 0.915017 0.847057
vt 0.915235 0.852968
vt 0.919173 0.860502
vt 0.924368 0.861349
vt 0.915343 0.835412
vt 0.915995 0.867260
vt 0.905736 0.865063
vt 0.903820 0.869286
vt 0.890997 0.817889
vt 0.889897 0.831884
vt 0.895492 0.841242
vt 0.888780 0.839598
vt 0.895170 0.857734
vt 0.512391 0.897674
vt 0.508652 0.889798
vt 0.512391 0.881743
vt 0.915982 0.598334
vt 0.912303 0.587977
vt 0.916001 0.585464
vt 0.916001 0.614437
vt 0.912314 0.615425
vt 0.508804 0.900051
vt 0.912295 0.601227
vt 0.912451 0.882883
vt 0.916287 0.894669
vt 0.912637 0.895001
vt 0.912513 0.871990
vt 0.916131 0.878636
vt 0.494065 0.425191
vt 0.489801 0.425191
vt 0.491581 0.420759
vt 0.523977 0.423555
vt 0.520306 0.415180
vt 0.523918 0.411541
vt 0.537650 0.421881
vt 0.533926 0.419762
vt 0.537650 0.411541
vt 0.916287 0.869286
vt 0.545005 0.418965
vt 0.545005 0.425299
vt 0.541328 0.423315
vt 0.520283 0.423555
vt 0.533964 0.411842
vt 0.390494 0.900428
vt 0.394174 0.893849
vt 0.394191 0.901426
vt 0.390491 0.885659
vt 0.212285 0.617225
vt 0.216052 0.623249
vt 0.212753 0.633957
vt 0.394191 0.882758
vt 0.216312 0.631368
vt 0.215981 0.608229
vt 0.212418 0.598440
vt 0.212832 0.588276
vt 0.216312 0.591132
vt 0.186308 0.850851
vt 0.189992 0.849899
vt 0.186268 0.866776
vt 0.186509 0.841211
vt 0.401676 0.903172
vt 0.397968 0.902172
vt 0.401676 0.894679
vt 0.189992 0.871431
vt 0.398180 0.886051
vt 0.541328 0.421717
vt 0.537650 0.421238
vt 0.541328 0.411541
vt 0.189962 0.890231
vt 0.186362 0.897229
vt 0.186268 0.889119
vt 0.186271 0.879858
vt 0.189954 0.880388
vt 0.186376 0.871431
vt 0.858528 0.304960
vt 0.858339 0.317585
vt 0.854672 0.314660
vt 0.858528 0.337926
vt 0.854788 0.336044
vt 0.858359 0.329595
vt 0.384139 0.882758
vt 0.387813 0.885196
vt 0.384114 0.889583
vt 0.854658 0.328187
vt 0.387801 0.894982
vt 0.384118 0.900136
vt 0.190061 0.897636
vt 0.537653 0.412667
vt 0.190061 0.871776
vt 0.854854 0.304747
vt 0.530789 0.416435
vt 0.530917 0.422149
vt 0.527113 0.418877
vt 0.387813 0.901813
vt 0.527201 0.411896
vt 0.404875 0.894979
vt 0.408603 0.900147
vt 0.404927 0.900888
vt 0.508381 0.893460
vt 0.508652 0.902947
vt 0.504766 0.899279
vt 0.404883 0.887159
vt 0.408603 0.890073
vt 0.504715 0.891006
vt 0.508652 0.879804
vt 0.408523 0.886051
vt 0.727521 0.357086
vt 0.723839 0.355746
vt 0.727521 0.352710
vt 0.515024 0.890299
vt 0.518734 0.894369
vt 0.515192 0.899424
vt 0.919691 0.607163
vt 0.916002 0.592090
vt 0.919691 0.590717
vt 0.515034 0.879804
vt 0.518734 0.881551
vt 0.530917 0.411541
vt 0.408560 0.894732
vt 0.504904 0.881639
vt 0.916019 0.585464
vt 0.916001 0.604768
vt 0.916021 0.611382
vt 0.723825 0.352331
vt 0.508656 0.879804
vn 1.0000 -0.0000 0.0000
vn 0.0000 -1.0000 0.0000
vn -1.0000 -0.0000 0.0000
vn 0.0000 0.0000 1.0000
vn 0.0000 1.0000 0.0000
vn -0.0000 -0.0000 -1.0000
vn 0.0001 0.0000 1.0000
vn -0.0001 -0.0001 1.0000
vn 0.0000 -0.0001 -1.0000
vn 0.0000 0.0001 -1.0000
vn 0.0001 -0.0001 -1.0000
vn -0.0886 -0.9453 0.3141
vn -0.0834 -0.9476 0.3084
vn -0.0879 -0.9473 0.3080
vn -0.8596 -0.3637 0.3589
vn -0.9622 0.2718 -0.0192
vn -0.3652 -0.8677 -0.3371
vn -0.9543 -0.1801 -0.2383
vn -0.9422 0.3012 0.1468
vn -0.2726 0.9346 0.2286
vn 0.2953 0.9267 0.2324
vn 0.8470 0.1018 0.5217
vn 0.7724 -0.2535 -0.5824
vn 0.0366 0.9565 -0.2894
vn -0.1274 0.9564 -0.2628
vn 0.5233 0.8046 -0.2806
vn 0.7013 -0.7124 -0.0278
vn 0.9960 0.0345 0.0824
vn 0.1763 0.9842 0.0145
vn -0.7863 0.5293 0.3188
vn -0.8624 0.1179 -0.4923
vn -0.4741 -0.7795 -0.4094
vn -0.8558 -0.2899 0.4284
vn -0.5572 -0.8037 -0.2088
vn -0.0954 -0.9442 0.3152
vn 0.1582 -0.9359 -0.3146
vn 0.6492 -0.6516 -0.3925
vn 0.9958 -0.0463 -0.0795
vn 0.3887 -0.8450 0.3673
vn 0.7379 0.6315 -0.2383
vn 0.3164 0.9348 -0.1616
vn 0.8903 -0.1489 0.4303
vn 0.5277 0.7196 0.4514
vn 0.4371 -0.8984 -0.0421
vn 0.4414 -0.8959 -0.0512
vn 0.4387 -0.8973 -0.0496
vn 0.8762 -0.4759 -0.0762
vn 0.9975 0.0196 -0.0676
vn 0.8506 0.5257 0.0103
vn 0.8515 0.5243 0.0092
vn 0.8499 0.5267 0.0154
vn 0.3406 0.9233 -0.1776
vn -0.5390 0.8360 -0.1029
vn -0.7492 -0.5745 -0.3296
vn -0.1170 0.9887 -0.0933
vn -0.9121 0.3054 -0.2737
vn 0.8473 -0.5279 0.0592
vn 0.4424 -0.8948 -0.0603
vn 0.9969 -0.0371 0.0689
vn 0.8521 0.5233 0.0042
vn 0.4229 0.9041 0.0619
vn -0.3684 -0.8968 0.2450
vn -0.0399 0.9903 0.1335
vn -0.4734 0.8787 0.0610
vn -0.8105 0.5606 0.1696
vn -0.9373 -0.0996 0.3341
vn 0.3496 -0.9060 -0.2385
vn 0.9966 -0.0134 -0.0810
vn -0.5604 -0.7164 0.4156
vn 0.8346 0.3779 0.4009
vn 0.2744 -0.9454 0.1759
vn 0.2802 -0.9453 0.1672
vn 0.2767 -0.9461 0.1685
vn 0.8457 -0.4560 -0.2774
vn -0.8749 -0.3139 -0.3687
vn -0.4469 0.8300 0.3339
vn -0.9950 0.0688 0.0730
vn 0.0148 0.9931 -0.1163
vn 0.5801 -0.8068 0.1119
vn 0.7513 0.6576 -0.0553
vn 0.9994 0.0280 -0.0220
vn 0.2813 -0.9468 0.1564
vn -0.2871 -0.9371 -0.1984
vn -0.8354 -0.5261 -0.1595
vn -0.9928 0.0613 0.1033
vn -0.0143 0.9827 -0.1849
vn -0.7216 0.6211 -0.3059
vn -0.7955 0.5090 0.3288
vn -0.0828 -0.9498 0.3018
s 1
f 1/1/1 2/2/1 3/3/1
f 4/4/2 5/5/2 6/6/2
f 7/7/3 8/8/3 9/9/3
f 10/10/4 9/11/4 2/12/4
f 8/13/2 3/14/2 2/15/2
f 11/16/5 7/17/5 10/18/5
f 12/19/6 5/20/6 11/21/6
f 13/22/6 12/19/6 3/23/6
f 5/20/6 4/24/6 7/25/6
f 4/24/6 13/22/6 8/26/6
f 6/27/6 14/28/6 15/29/6
f 5/30/3 12/31/3 14/32/3
f 13/33/1 4/34/1 16/35/1
f 12/36/5 13/37/5 15/38/5
f 1/1/1 3/3/1 11/39/1
f 4/4/2 6/6/2 16/40/2
f 7/7/3 9/9/3 10/41/3
f 10/10/4 2/12/4 1/42/4
f 8/13/2 2/15/2 9/43/2
f 11/16/5 10/18/5 1/44/5
f 12/19/6 11/21/6 3/23/6
f 13/22/6 3/23/6 8/26/6
f 5/20/6 7/25/6 11/21/6
f 4/24/6 8/26/6 7/25/6
f 6/27/6 15/29/6 16/45/6
f 5/30/3 14/32/3 6/46/3
f 13/33/1 16/35/1 15/47/1
f 12/36/5 15/38/5 14/48/5
f 17/49/4 18/50/4 19/51/4
f 20/52/4 21/53/4 22/54/4
f 23/55/4 24/56/4 25/57/4
f 26/58/4 27/59/4 28/60/4
f 18/50/4 17/49/4 20/52/4
f 21/53/4 20/52/4 17/49/4
f 29/61/4 19/51/4 30/62/4
f 31/63/4 19/51/4 29/61/4
f 32/64/4 19/51/4 31/63/4
f 32/64/4 17/49/4 19/51/4
f 33/65/4 22/54/4 21/53/4
f 24/56/4 23/55/4 34/66/4
f 24/56/4 35/67/4 36/68/7
f 25/57/4 24/56/4 36/68/7
f 25/57/4 36/68/7 37/69/4
f 38/70/8 39/71/4 40/72/4
f 41/73/4 35/67/4 24/56/4
f 39/71/4 42/74/4 40/72/4
f 37/69/4 43/75/4 44/76/4
f 37/69/4 44/76/4 25/57/4
f 45/77/4 44/76/4 43/75/4
f 29/61/4 46/78/4 31/63/4
f 47/79/4 48/80/4 39/71/4
f 47/79/4 46/78/4 49/81/4
f 47/79/4 49/81/4 48/80/4
f 29/61/4 49/81/4 46/78/4
f 42/74/4 39/71/4 48/80/4
f 42/74/4 27/59/4 50/82/4
f 48/80/4 27/59/4 42/74/4
f 50/82/4 27/59/4 51/83/4
f 45/77/4 43/75/4 52/84/4
f 26/58/4 52/84/4 51/83/4
f 52/84/4 26/58/4 45/77/4
f 53/85/4 45/77/4 26/58/4
f 51/83/4 27/59/4 26/58/4
f 54/86/6 55/87/6 56/88/6
f 57/89/6 58/90/9 59/91/6
f 60/92/6 61/93/6 62/94/6
f 63/95/6 64/96/6 65/97/6
f 56/88/6 66/98/6 67/99/6
f 55/87/6 66/98/6 56/88/6
f 68/100/6 56/88/6 67/99/6
f 68/100/6 69/101/6 70/102/6
f 71/103/6 58/90/9 57/89/6
f 67/99/6 69/101/6 68/100/6
f 72/104/10 73/105/6 74/106/6
f 75/107/6 73/105/6 76/108/11
f 77/109/11 76/108/11 73/105/6
f 59/91/6 58/90/9 78/110/11
f 74/106/6 73/105/6 75/107/6
f 79/111/9 80/112/6 76/108/11
f 76/108/11 77/109/11 79/111/9
f 79/111/9 81/113/10 80/112/6
f 63/95/6 68/100/6 70/102/6
f 63/95/6 70/102/6 82/114/6
f 57/89/6 83/115/6 71/103/6
f 71/103/6 83/115/6 82/114/6
f 63/95/6 82/114/6 64/96/6
f 64/96/6 82/114/6 83/115/6
f 59/91/6 84/116/6 57/89/6
f 85/117/6 57/89/6 84/116/6
f 81/113/10 60/92/6 80/112/6
f 60/92/6 86/118/6 80/112/6
f 84/116/6 86/118/6 85/117/6
f 62/94/6 85/117/6 60/92/6
f 86/118/6 60/92/6 85/117/6
f 71/119/12 39/120/13 58/121/14
f 82/122/15 47/123/15 71/124/15
f 70/125/16 31/126/16 82/122/16
f 71/119/17 47/127/17 39/120/17
f 82/122/18 46/128/18 47/123/18
f 82/122/19 31/126/19 46/128/19
f 69/129/20 31/130/20 70/131/20
f 67/132/21 32/133/21 69/129/21
f 66/134/22 17/135/22 67/136/22
f 55/137/23 21/138/23 66/139/23
f 54/140/24 22/141/24 55/142/24
f 69/129/25 32/133/25 31/130/25
f 67/132/26 17/143/26 32/133/26
f 21/144/27 17/145/27 66/146/27
f 55/137/28 33/147/28 21/138/28
f 55/142/29 22/141/29 33/148/29
f 54/149/30 20/150/30 22/151/30
f 56/152/31 20/150/31 54/149/31
f 68/153/32 19/154/32 56/155/32
f 56/152/33 18/156/33 20/150/33
f 56/155/34 19/154/34 18/157/34
f 68/153/35 30/158/35 19/154/35
f 63/159/36 30/158/36 68/153/36
f 65/160/37 29/161/37 63/159/37
f 64/162/38 49/163/38 65/164/38
f 63/159/39 29/161/39 30/158/39
f 83/165/40 49/163/40 64/162/40
f 57/166/41 48/167/41 83/168/41
f 49/163/42 29/169/42 65/164/42
f 83/168/43 48/167/43 49/170/43
f 85/171/44 27/172/45 57/173/46
f 28/174/47 85/175/47 62/176/47
f 61/177/48 26/178/48 62/176/48
f 60/179/49 26/178/50 61/177/51
f 60/180/52 81/181/52 45/182/52
f 77/183/53 25/184/53 79/185/53
f 72/186/54 34/187/54 73/188/54
f 79/185/55 44/189/55 81/181/55
f 73/188/56 23/190/56 77/191/56
f 85/175/57 28/174/57 27/192/57
f 27/172/45 48/193/58 57/173/46
f 28/174/59 62/176/59 26/178/59
f 53/194/60 26/178/50 60/179/49
f 60/180/61 45/182/61 53/195/61
f 24/196/62 34/197/62 72/198/62
f 45/182/63 81/181/63 44/189/63
f 25/184/64 44/189/64 79/185/64
f 25/199/65 77/191/65 23/190/65
f 34/187/66 23/190/66 73/188/66
f 74/200/67 24/196/67 72/198/67
f 75/201/68 41/202/68 74/203/68
f 80/204/69 86/205/69 52/206/69
f 76/207/70 36/208/70 75/201/70
f 80/204/71 43/209/72 76/210/73
f 76/207/74 37/211/74 36/208/74
f 58/212/75 38/213/75 78/214/75
f 59/215/76 42/216/76 84/217/76
f 84/218/77 51/219/77 86/220/77
f 78/221/78 40/222/78 59/215/78
f 41/223/79 24/196/79 74/200/79
f 36/208/80 35/224/80 75/201/80
f 41/202/81 75/201/81 35/224/81
f 43/209/72 37/225/82 76/210/73
f 43/209/83 80/204/83 52/206/83
f 51/219/84 52/226/84 86/220/84
f 50/227/85 51/219/85 84/218/85
f 40/222/86 42/216/86 59/215/86
f 50/227/87 84/218/87 42/228/87
f 38/213/88 40/229/88 78/214/88
f 38/230/89 58/121/14 39/120/13
