# Blender v2.81 (sub 16) OBJ File: 'house.blend'
# www.blender.org
o laptop_pc_Cube.022
v -28.059067 7.007833 -10.708128
v -26.128914 6.994423 -10.630589
v -28.027832 6.994423 -10.646889
v -28.091396 7.007832 -6.940556
v -28.059116 6.994422 -7.001254
v -26.096634 7.007833 -10.691282
v -26.160202 6.994422 -6.984954
v -26.128971 7.007832 -6.923715
v -28.273376 7.172383 -6.598382
v -28.235138 7.160215 -11.053375
v -28.273376 7.160214 -6.598382
v -25.914654 7.172384 -11.033457
v -25.952892 7.160214 -6.578467
v -25.914654 7.160215 -11.033457
v -28.230732 7.141228 -11.044720
v -25.919209 7.141228 -11.024879
v -28.217701 7.119405 -11.019183
v -25.954353 7.095836 -10.958805
v -28.196732 7.095836 -10.978051
v -28.168850 7.071707 -10.923385
v -25.983166 7.071707 -10.904625
v -28.135460 7.048228 -10.857924
v -26.056137 7.026574 -10.767425
v -28.098240 7.026574 -10.784953
v -28.268822 7.141227 -6.606965
v -28.255356 7.119404 -6.632269
v -28.233677 7.095835 -6.673037
v -28.204865 7.071706 -6.727218
v -28.170361 7.048227 -6.792094
v -28.131893 7.026573 -6.864418
v -25.957306 7.141227 -6.587123
v -25.970329 7.119404 -6.612659
v -25.991299 7.095835 -6.653791
v -26.019180 7.071706 -6.708457
v -26.052570 7.048227 -6.773918
v -26.089790 7.026573 -6.846889
v -25.932674 7.119405 -10.999573
v -26.017670 7.048228 -10.839749
v -28.235138 7.172384 -11.053375
v -28.259037 7.219588 -8.269006
v -28.254265 7.219588 -8.825881
v -26.808735 7.219588 -8.256557
v -26.799141 7.185466 -8.274592
v -26.794518 7.185466 -8.813351
v -25.952892 7.219588 -6.578467
v -26.228611 7.219588 -8.251580
v -26.820686 7.219588 -6.864372
v -25.914650 7.219589 -11.033457
v -26.219051 7.219588 -9.365329
v -26.787224 7.219589 -10.762486
v -26.799175 7.219588 -9.370305
v -27.947472 7.219589 -10.772448
v -27.934875 7.181520 -10.728771
v -27.651302 7.181520 -10.726338
v -26.833279 7.181519 -6.908049
v -27.980927 7.219588 -6.874333
v -27.965252 7.181519 -7.189998
v -27.968971 7.218772 -6.917796
v -28.244698 7.219588 -9.939626
v -28.249477 7.219588 -9.382751
v -28.235138 7.219589 -11.053375
v -28.237530 7.219589 -10.774936
v -28.239925 7.219589 -10.496501
v -26.812248 7.181520 -9.357968
v -26.816921 7.181520 -8.813543
v -26.800568 7.181520 -10.719034
v -26.802902 7.181520 -10.446821
v -28.263817 7.219588 -7.712131
v -28.268604 7.219588 -7.155257
v -28.270985 7.219588 -6.876821
v -26.807575 7.181520 -9.902396
v -27.955902 7.181520 -8.278852
v -26.830940 7.181519 -7.180264
v -27.951229 7.181520 -8.823279
v -27.367725 7.181520 -10.723903
v -27.938038 7.218416 -10.728799
v -28.273376 7.219588 -6.598382
v -27.967587 7.181519 -6.917785
v -26.228642 7.185466 -9.347290
v -26.233269 7.185466 -8.808535
v -26.789890 7.185466 -9.352105
v -26.789894 7.218039 -9.352105
v -26.228645 7.218039 -9.347290
v -26.237892 7.185466 -8.269776
v -26.799141 7.218039 -8.274592
v -26.833279 7.218845 -6.908049
v -27.937214 7.181520 -10.456558
v -26.800568 7.218846 -10.719034
v -26.821590 7.181520 -8.269114
v -26.826271 7.181520 -7.724689
v -27.084145 7.181520 -10.721470
v -27.946560 7.181520 -9.367705
v -26.794518 7.218039 -8.813351
v -26.237892 7.218039 -8.269776
v -28.280930 7.223547 -8.440058
v -28.237514 7.273040 -6.624674
v -28.296513 7.223546 -6.625178
v -29.973106 9.221711 -6.639570
v -29.891914 9.271213 -9.225986
v -29.935322 9.221712 -11.041369
v -29.950905 9.221712 -9.226490
v -28.199738 7.273045 -11.026474
v -28.258728 7.223547 -11.026981
v -28.274303 7.223547 -9.212102
v -28.246910 7.318555 -10.884727
v -28.289082 7.312820 -6.767268
v -28.277691 7.322376 -6.767169
v -29.784531 9.118220 -6.780102
v -29.749191 9.118221 -10.897620
v -29.763760 9.118221 -9.199952
v -29.876339 9.271213 -11.040861
v -29.795921 9.108662 -6.780200
v -29.769955 9.118220 -8.477770
v -29.781349 9.108662 -8.477867
v -29.760582 9.108663 -10.897718
v -29.769188 9.118220 -8.567954
v -29.780579 9.108662 -8.568052
v -29.898540 9.271212 -8.453941
v -29.914120 9.271212 -6.639062
v -29.764534 9.118221 -9.109768
v -29.927792 9.312988 -9.129875
v -29.957531 9.221711 -8.454446
v -28.275131 7.223547 -9.115691
v -29.986786 9.263488 -9.130383
v -28.280106 7.223547 -8.536469
v -29.991760 9.263487 -8.551158
v -29.932766 9.312987 -8.550650
v -29.775150 9.108663 -9.200050
v -29.775928 9.108663 -9.109866
vt 0.610617 0.698841
vt 0.660351 0.702484
vt 0.611254 0.700648
vt 0.668398 0.698703
vt 0.667702 0.805482
vt 0.667702 0.700459
vt 0.661356 0.700739
vt 0.660351 0.807239
vt 0.611254 0.805402
vt 0.661356 0.808997
vt 0.674756 0.688801
vt 0.674423 0.817140
vt 0.674423 0.688801
vt 0.860023 0.236306
vt 0.859727 0.364645
vt 0.859727 0.236306
vt 0.672000 0.817141
vt 0.672555 0.883860
vt 0.672000 0.883989
vt 0.667702 0.691036
vt 0.607979 0.689584
vt 0.607936 0.688801
vt 0.666184 0.692993
vt 0.608206 0.690824
vt 0.608608 0.692459
vt 0.665120 0.694573
vt 0.609163 0.694408
vt 0.662644 0.698546
vt 0.609844 0.696571
vt 0.673857 0.689049
vt 0.673857 0.816892
vt 0.673122 0.689782
vt 0.672256 0.814980
vt 0.672256 0.690961
vt 0.671302 0.692529
vt 0.671302 0.813412
vt 0.670308 0.694407
vt 0.669323 0.809442
vt 0.669323 0.696499
vt 0.691617 0.284722
vt 0.692171 0.351441
vt 0.691617 0.351570
vt 0.692171 0.284851
vt 0.692804 0.351060
vt 0.667059 0.817848
vt 0.608207 0.814525
vt 0.666184 0.816693
vt 0.665120 0.815146
vt 0.608608 0.813033
vt 0.663920 0.813283
vt 0.609844 0.809224
vt 0.662644 0.811199
vt 0.859340 0.236555
vt 0.667702 0.818551
vt 0.667059 0.691794
vt 0.663920 0.696455
vt 0.671644 0.883989
vt 0.676049 0.736928
vt 0.676049 0.752971
vt 0.678186 0.880169
vt 0.677203 0.879648
vt 0.677203 0.864127
vt 0.899933 0.233720
vt 0.895182 0.281847
vt 0.885679 0.241741
vt 0.899933 0.362059
vt 0.895181 0.313932
vt 0.885679 0.354038
vt 0.885679 0.313932
vt 0.676720 0.355727
vt 0.677845 0.356101
vt 0.677845 0.364270
vt 0.676720 0.389151
vt 0.677842 0.389525
vt 0.676720 0.422576
vt 0.597347 0.416168
vt 0.597347 0.425162
vt 0.597033 0.417401
vt 0.866674 0.241741
vt 0.861923 0.329975
vt 0.861923 0.313932
vt 0.861923 0.297890
vt 0.866674 0.354038
vt 0.861923 0.362059
vt 0.861923 0.354038
vt 0.861923 0.346017
vt 0.885679 0.281847
vt 0.884543 0.313574
vt 0.884543 0.297890
vt 0.884543 0.352783
vt 0.884543 0.344941
vt 0.861923 0.265805
vt 0.861923 0.249763
vt 0.861923 0.241741
vt 0.861923 0.281847
vt 0.884543 0.329257
vt 0.216504 0.628747
vt 0.216312 0.627495
vt 0.216504 0.588276
vt 0.884543 0.250838
vt 0.928566 0.905161
vt 0.927430 0.864697
vt 0.927430 0.849013
vt 0.676720 0.389151
vt 0.677845 0.372439
vt 0.928378 0.794119
vt 0.928566 0.792865
vt 0.861923 0.233720
vt 0.837636 0.617510
vt 0.836663 0.616128
vt 0.837636 0.608345
vt 0.894199 0.313410
vt 0.894199 0.297890
vt 0.837020 0.337926
vt 0.838022 0.354366
vt 0.837020 0.354638
vt 0.677203 0.848607
vt 0.678186 0.848084
vt 0.836016 0.354638
vt 0.837020 0.338198
vt 0.837020 0.354367
vt 0.902540 0.345007
vt 0.903432 0.360527
vt 0.902540 0.360527
vt 0.858528 0.304747
vt 0.859319 0.304747
vt 0.858528 0.320268
vt 0.881025 0.883314
vt 0.880072 0.867146
vt 0.881025 0.867146
vt 0.908652 0.292023
vt 0.909558 0.378283
vt 0.908652 0.307707
vt 0.554937 0.425218
vt 0.553894 0.417376
vt 0.554937 0.417376
vt 0.676093 0.854526
vt 0.677131 0.815316
vt 0.676092 0.870210
vt 0.908652 0.268497
vt 0.909558 0.268496
vt 0.908652 0.276339
vt 0.908652 0.339074
vt 0.908652 0.354758
vt 0.908652 0.323391
vt 0.677210 0.831745
vt 0.678296 0.848084
vt 0.677206 0.839915
vt 0.838482 0.788424
vt 0.837447 0.788424
vt 0.838482 0.780583
vt 0.677216 0.815407
vt 0.678296 0.815316
vt 0.677213 0.823576
vt 0.908652 0.370442
vt 0.908652 0.378284
vt 0.676091 0.885893
vt 0.677203 0.848084
vt 0.677131 0.925103
vt 0.607936 0.875856
vt 0.606845 0.843139
vt 0.607936 0.843179
vt 0.902540 0.329486
vt 0.903432 0.345007
vt 0.859319 0.335788
vt 0.858528 0.335788
vt 0.838022 0.337926
vt 0.838975 0.337926
vt 0.838022 0.354095
vt 0.676091 0.763167
vt 0.678296 0.815283
vt 0.676091 0.815316
vt 0.856913 0.228139
vt 0.854659 0.303278
vt 0.854658 0.228140
vt 0.902100 0.308244
vt 0.899933 0.360527
vt 0.899933 0.308244
vt 0.859168 0.303279
vt 0.856913 0.228139
vt 0.859168 0.228139
vt 0.525301 0.337005
vt 0.597373 0.284722
vt 0.597373 0.337005
vt 0.861331 0.236305
vt 0.861587 0.354922
vt 0.861169 0.354922
vt 0.453666 0.288818
vt 0.523795 0.284734
vt 0.521919 0.288829
vt 0.453666 0.407435
vt 0.447851 0.359246
vt 0.453666 0.358529
vt 0.523795 0.411541
vt 0.447851 0.411529
vt 0.678280 0.423258
vt 0.677845 0.355727
vt 0.678280 0.355727
vt 0.469150 0.727222
vt 0.469576 0.678435
vt 0.469576 0.727216
vt 0.469150 0.747974
vt 0.469576 0.796748
vt 0.469150 0.796754
vt 0.469150 0.729814
vt 0.469576 0.729807
vt 0.447851 0.337005
vt 0.447851 0.284722
vt 0.453666 0.355931
vt 0.446263 0.356468
vt 0.521938 0.407446
vt 0.597373 0.411529
vt 0.525301 0.359246
vt 0.597373 0.359246
vt 0.597373 0.339783
vt 0.899933 0.233720
vt 0.902100 0.286003
vt 0.899933 0.286003
vt 0.900372 0.305467
vt 0.678296 0.688801
vt 0.676091 0.740983
vt 0.676091 0.688834
vt 0.676091 0.760397
vt 0.676091 0.743753
vt 0.900372 0.288780
vt 0.902540 0.288780
vt 0.597373 0.356469
vt 0.523795 0.356469
vt 0.453666 0.340322
vt 0.453666 0.337724
vt 0.446263 0.339782
vt 0.469150 0.745382
vt 0.469576 0.747967
vt 0.469576 0.745376
vt 0.668398 0.807239
vt 0.861169 0.236305
vt 0.861169 0.364644
vt 0.610617 0.807099
vt 0.674756 0.817140
vt 0.691261 0.284722
vt 0.672555 0.817270
vt 0.673122 0.816160
vt 0.670308 0.811535
vt 0.692804 0.285233
vt 0.607979 0.815638
vt 0.609163 0.811236
vt 0.859340 0.364398
vt 0.671644 0.817141
vt 0.670262 0.817140
vt 0.670262 0.883989
vt 0.676049 0.817140
vt 0.676049 0.809119
vt 0.676049 0.801098
vt 0.676049 0.688801
vt 0.676049 0.696822
vt 0.676049 0.704844
vt 0.676049 0.720886
vt 0.676049 0.785056
vt 0.676049 0.769013
vt 0.689879 0.284722
vt 0.689879 0.351570
vt 0.894199 0.282369
vt 0.216575 0.637904
vt 0.216312 0.636645
vt 0.216575 0.628747
vt 0.837447 0.780583
vt 0.837447 0.789748
vt 0.836475 0.781965
vt 0.677845 0.380608
vt 0.677845 0.388778
vt 0.884543 0.242996
vt 0.884543 0.266522
vt 0.677842 0.422202
vt 0.927430 0.833330
vt 0.884543 0.282206
vt 0.838022 0.338198
vt 0.836016 0.337926
vt 0.880072 0.883314
vt 0.606843 0.875856
vt 0.903432 0.329486
vt 0.838975 0.354094
vt 0.856913 0.303279
vt 0.902100 0.360527
vt 0.856913 0.303279
vt 0.525301 0.284722
vt 0.693239 0.284722
vt 0.693239 0.352253
vt 0.692804 0.352252
vt 0.677845 0.423258
vt 0.469150 0.678441
vt 0.525301 0.411529
vt 0.523795 0.339782
vt 0.902100 0.233720
vt 0.902540 0.305467
vt 0.912295 0.585464
vt 0.912295 0.616505
vt 0.903102 0.585464
vt 0.903102 0.616505
vt 0.903102 0.600984
vt 0.854658 0.228139
vt 0.854658 0.337926
vt 0.836054 0.228139
vt 0.836016 0.337926
vt 0.665615 0.333629
vt 0.597380 0.284722
vt 0.665606 0.284722
vt 0.597373 0.403340
vt 0.665618 0.354433
vt 0.665626 0.403340
vt 0.665615 0.336227
vt 0.665618 0.351835
vn 0.0018 -0.9767 -0.2148
vn -0.3889 -0.9213 -0.0033
vn -0.3890 -0.9212 -0.0033
vn 0.3890 -0.9212 0.0033
vn 0.0000 -1.0000 -0.0000
vn -0.0018 -0.9767 0.2148
vn -1.0000 0.0000 -0.0086
vn 0.7131 -0.0000 -0.7010
vn 0.4735 -0.1719 0.8638
vn 1.0000 0.0000 0.0086
vn 0.0078 -0.4132 -0.9106
vn 0.0078 -0.4133 -0.9106
vn 0.0056 -0.7588 -0.6514
vn 0.0056 -0.7585 -0.6517
vn 0.0056 -0.7588 -0.6513
vn 0.0043 -0.8667 -0.4988
vn 0.0035 -0.9142 -0.4053
vn 0.0029 -0.9408 -0.3389
vn 0.0025 -0.9583 -0.2856
vn 0.0020 -0.9713 -0.2380
vn -0.9731 -0.2302 -0.0085
vn -0.9732 -0.2298 -0.0084
vn -0.8548 -0.5189 -0.0073
vn -0.7414 -0.6710 -0.0064
vn -0.7415 -0.6709 -0.0064
vn -0.6481 -0.7615 -0.0056
vn -0.6482 -0.7615 -0.0056
vn -0.5687 -0.8225 -0.0049
vn -0.5688 -0.8224 -0.0049
vn -0.4966 -0.8680 -0.0043
vn -0.4257 -0.9049 -0.0037
vn -0.4256 -0.9049 -0.0037
vn -0.0084 -0.1962 0.9805
vn -0.0078 -0.4133 0.9106
vn -0.0056 -0.7587 0.6514
vn -0.0056 -0.7588 0.6513
vn -0.0043 -0.8667 0.4988
vn -0.0035 -0.9142 0.4053
vn -0.0029 -0.9408 0.3389
vn -0.0025 -0.9583 0.2856
vn -0.0020 -0.9713 0.2380
vn 0.9732 -0.2300 0.0084
vn 0.9732 -0.2297 0.0084
vn 0.8548 -0.5188 0.0073
vn 0.8550 -0.5185 0.0072
vn 0.8548 -0.5189 0.0073
vn 0.7414 -0.6710 0.0064
vn 0.7416 -0.6709 0.0064
vn 0.6481 -0.7615 0.0056
vn 0.6482 -0.7615 0.0056
vn 0.5688 -0.8225 0.0049
vn 0.4966 -0.8679 0.0043
vn 0.4966 -0.8680 0.0043
vn 0.4257 -0.9049 0.0037
vn 0.4256 -0.9049 0.0037
vn 0.0086 0.0000 -1.0000
vn -1.0000 0.0005 -0.0086
vn -1.0000 -0.0001 -0.0086
vn -0.4581 0.8415 -0.2866
vn 0.6852 0.4815 -0.5465
vn 0.9637 0.2669 0.0083
vn -0.0000 1.0000 0.0000
vn -0.1792 0.9627 -0.2026
vn -0.1149 0.9824 -0.1472
vn -0.1827 0.9627 0.1995
vn -0.0040 0.8815 0.4721
vn 0.4142 0.7489 0.5172
vn 0.6797 0.6387 0.3607
vn -0.0056 0.7530 0.6580
vn -0.6798 0.6386 -0.3607
vn 0.4226 0.7485 -0.5110
vn -0.0255 0.0861 0.9960
vn -0.1542 0.6985 0.6988
vn -0.9466 0.3224 -0.0081
vn -0.9465 0.3225 -0.0081
vn -0.4212 0.7424 0.5211
vn -0.6858 0.6387 0.3490
vn -0.1817 0.9834 -0.0018
vn 0.9463 0.3232 0.0081
vn -0.0057 0.7530 0.6580
vn 0.1420 0.1107 -0.9837
vn 0.6858 0.6387 -0.3490
vn -0.6853 0.4814 0.5465
vn -0.9637 0.2668 -0.0083
vn 0.9638 0.2666 0.0083
vn -0.0076 0.4690 0.8832
vn -0.5724 0.5773 -0.5823
vn -0.7010 -0.0001 -0.7132
vn 0.7132 0.0001 -0.7010
vn 0.5822 0.5774 -0.5724
vn -0.0086 0.0000 1.0000
vn 0.5724 0.5774 0.5823
vn 1.0000 0.0001 0.0086
vn -0.0092 0.0832 -0.9965
vn -0.6794 -0.0588 -0.7314
vn -0.9993 -0.0376 -0.0086
vn 0.7132 0.0000 -0.7009
vn 1.0000 0.0002 0.0086
vn 1.0000 0.0004 0.0086
vn 1.0000 -0.0004 0.0086
vn 0.0086 -0.0001 -1.0000
vn 0.0086 0.0001 -1.0000
vn -0.7044 -0.0260 0.7093
vn 0.7010 -0.0000 0.7132
vn -0.9977 -0.0679 -0.0081
vn -0.0177 0.9998 -0.0002
vn -0.7071 0.7071 -0.0061
vn 0.7071 0.7071 0.0061
vn 0.6430 -0.7659 0.0055
vn 0.6427 -0.7661 0.0055
vn -0.6428 0.7660 -0.0055
vn -0.7660 -0.6428 -0.0066
vn 0.7626 0.6467 0.0119
vn 0.0763 0.8136 -0.5764
vn -0.4482 0.5415 -0.7113
vn 0.7660 0.6428 0.0066
vn 0.7660 0.6428 0.0062
vn 0.7672 0.6414 0.0058
vn 0.7660 0.6428 0.0071
vn 0.7503 0.6601 0.0362
vn 0.6426 -0.7662 0.0055
vn 0.6428 -0.7660 0.0055
vn 0.6426 -0.7661 0.0055
vn 0.7315 0.6814 0.0245
vn -0.6428 0.7661 -0.0055
vn -0.5552 0.6668 -0.4971
vn -0.5553 0.6667 -0.4971
vn 0.6429 -0.7659 0.0055
vn -0.5637 0.6668 0.4875
vn -0.6427 0.7661 -0.0055
vn 0.7660 0.6428 0.0065
vn 0.7132 -0.0001 -0.7010
vn -0.9732 -0.2296 -0.0084
vn -0.0078 -0.4135 0.9105
vn -1.0000 0.0001 -0.0086
vn -1.0000 -0.0003 -0.0086
vn -1.0000 0.0002 -0.0086
vn -1.0000 -0.0004 -0.0086
vn -1.0000 0.0006 -0.0086
vn -0.6757 0.4814 -0.5582
vn -0.9465 0.3226 -0.0081
vn 0.9844 0.1755 0.0109
vn -0.0085 -0.0000 1.0000
vn 0.5346 0.4571 0.7108
vn -0.0003 1.0000 -0.0001
vn 0.7646 0.6445 0.0076
s 1
f 1/1/1 2/2/1 3/3/1
f 4/4/2 3/5/3 5/6/2
f 6/7/4 7/8/4 2/2/4
f 5/9/5 2/2/5 7/8/5
f 8/10/6 5/9/6 7/8/6
f 9/11/7 10/12/7 11/13/7
f 12/14/8 13/15/9 14/16/10
f 14/17/11 15/18/12 10/19/12
f 16/20/13 17/21/14 15/22/15
f 17/21/16 18/23/16 19/24/16
f 18/23/17 20/25/17 19/24/17
f 21/26/18 22/27/18 20/25/18
f 22/27/19 23/28/19 24/29/19
f 23/28/20 1/1/20 24/29/20
f 10/12/21 25/30/22 11/13/22
f 15/31/23 26/32/23 25/30/23
f 26/32/24 19/33/25 27/34/24
f 19/33/26 28/35/27 27/34/27
f 20/36/28 29/37/29 28/35/29
f 29/37/30 24/38/30 30/39/30
f 24/38/31 4/4/32 30/39/32
f 11/40/33 31/41/34 13/42/9
f 25/43/35 32/44/36 31/41/36
f 32/45/37 27/46/37 33/47/37
f 27/46/38 34/48/38 33/47/38
f 28/49/39 35/50/39 34/48/39
f 35/50/40 30/51/40 36/52/40
f 30/51/41 8/10/41 36/52/41
f 13/15/42 16/53/43 14/16/43
f 31/54/44 37/55/45 16/20/46
f 37/55/47 33/47/48 18/23/47
f 33/47/49 21/26/50 18/23/50
f 34/48/51 38/56/51 21/26/51
f 38/56/52 36/52/53 23/28/52
f 36/52/54 6/7/55 23/28/55
f 39/57/56 14/17/56 10/19/56
f 9/11/7 40/58/57 41/59/58
f 42/60/59 43/61/60 44/62/61
f 45/63/62 46/64/63 47/65/64
f 48/66/62 49/67/65 46/64/63
f 49/67/65 50/68/62 51/69/66
f 52/70/67 53/71/68 54/72/69
f 47/73/64 55/74/70 56/75/71
f 56/76/71 57/77/72 58/78/73
f 56/79/62 59/80/62 60/81/62
f 56/79/62 60/81/62 41/82/62
f 52/83/62 61/84/62 62/85/62
f 52/83/62 63/86/62 59/80/62
f 42/87/59 64/88/74 65/89/75
f 50/68/76 66/90/77 67/91/74
f 56/79/62 68/92/62 69/93/62
f 56/79/62 69/93/62 70/94/62
f 56/79/62 41/82/62 40/95/62
f 56/79/62 40/95/62 68/92/62
f 51/69/74 71/96/74 64/88/74
f 56/97/71 58/98/73 72/99/78
f 42/87/59 73/100/74 47/65/64
f 56/101/71 72/102/78 74/103/79
f 50/104/76 54/72/69 75/105/80
f 51/69/74 67/91/74 71/96/74
f 50/68/62 48/66/62 52/83/62
f 56/101/71 76/106/81 52/107/67
f 48/66/62 50/68/62 49/67/65
f 45/63/62 70/94/62 77/108/62
f 52/83/62 62/85/62 63/86/62
f 56/109/71 78/110/82 57/111/72
f 46/64/63 79/112/83 80/113/84
f 46/114/63 43/115/60 42/116/59
f 42/60/59 81/117/85 51/118/85
f 49/119/65 81/120/86 79/121/83
f 44/122/7 82/123/87 81/124/88
f 79/125/89 83/126/90 80/127/10
f 84/128/91 85/129/91 43/130/91
f 71/131/10 86/132/92 64/133/93
f 87/134/94 76/135/81 53/136/95
f 72/137/78 58/138/73 74/139/96
f 66/140/8 88/141/97 67/142/98
f 89/143/99 86/132/92 90/144/100
f 65/145/10 86/132/92 89/143/99
f 75/146/101 88/147/97 91/148/102
f 78/149/103 58/150/73 57/151/72
f 53/152/95 76/153/81 54/154/56
f 67/142/98 88/141/97 71/131/10
f 73/155/93 86/132/92 55/156/104
f 74/139/96 58/138/73 92/157/105
f 91/148/102 88/147/97 66/158/8
f 90/144/100 86/132/92 73/155/93
f 92/157/105 58/138/73 76/159/106
f 54/154/56 88/147/97 75/146/101
f 64/133/93 86/132/92 65/145/10
f 55/160/104 58/161/73 78/162/103
f 43/163/7 93/164/107 44/122/7
f 80/127/10 94/165/108 84/166/10
f 81/167/88 82/168/87 79/169/89
f 95/170/109 96/171/110 97/172/110
f 96/173/91 98/174/91 97/175/91
f 99/176/111 100/177/111 101/178/111
f 100/179/56 102/180/56 103/181/56
f 101/182/112 103/183/112 104/184/112
f 105/185/113 106/186/114 107/187/115
f 108/188/116 96/189/117 107/190/118
f 109/191/119 99/192/116 110/193/116
f 109/191/119 102/194/120 111/195/116
f 107/196/115 112/197/56 108/198/56
f 113/199/121 112/200/122 114/201/121
f 110/202/123 115/203/122 109/204/122
f 116/205/122 114/201/121 117/206/122
f 108/188/116 118/207/116 119/208/116
f 120/209/116 99/192/116 121/210/116
f 105/211/124 96/189/117 102/194/120
f 97/212/112 122/213/112 95/214/112
f 123/215/112 101/182/112 104/184/112
f 98/216/125 118/217/111 122/218/111
f 124/219/126 99/176/126 101/178/127
f 102/220/110 104/221/110 103/222/110
f 125/223/110 96/171/110 95/170/109
f 96/171/110 123/224/128 104/221/110
f 96/171/110 125/223/110 123/224/128
f 118/217/129 126/225/129 122/218/129
f 127/226/125 124/219/130 126/225/125
f 122/213/112 125/227/112 95/214/112
f 126/228/112 123/215/112 125/227/112
f 116/229/116 118/207/116 113/230/131
f 120/209/116 127/231/116 116/229/116
f 120/232/121 128/233/123 110/202/123
f 116/205/122 129/234/121 120/232/121
f 1/1/1 6/7/1 2/2/1
f 4/4/2 1/235/3 3/5/3
f 6/7/4 8/10/4 7/8/4
f 5/9/5 3/3/5 2/2/5
f 13/15/9 12/14/8 48/236/132
f 48/236/132 45/237/104 13/15/9
f 8/10/6 4/238/6 5/9/6
f 9/11/7 39/239/7 10/12/7
f 13/42/9 9/240/91 11/40/33
f 14/17/11 16/241/11 15/18/12
f 16/20/13 37/55/13 17/21/14
f 17/21/16 37/55/16 18/23/16
f 18/23/17 21/26/17 20/25/17
f 21/26/18 38/56/18 22/27/18
f 22/27/19 38/56/19 23/28/19
f 23/28/20 6/7/20 1/1/20
f 10/12/21 15/31/133 25/30/22
f 15/31/23 17/242/23 26/32/23
f 26/32/24 17/242/25 19/33/25
f 19/33/26 20/36/26 28/35/27
f 20/36/28 22/243/28 29/37/29
f 29/37/30 22/243/30 24/38/30
f 24/38/31 1/235/31 4/4/32
f 11/40/33 25/43/134 31/41/34
f 25/43/35 26/244/35 32/44/36
f 32/45/37 26/245/37 27/46/37
f 27/46/38 28/49/38 34/48/38
f 28/49/39 29/246/39 35/50/39
f 35/50/40 29/246/40 30/51/40
f 30/51/41 4/238/41 8/10/41
f 13/15/42 31/247/42 16/53/43
f 31/54/44 32/45/44 37/55/45
f 37/55/47 32/45/48 33/47/48
f 33/47/49 34/48/49 21/26/50
f 34/48/51 35/50/51 38/56/51
f 38/56/52 35/50/53 36/52/53
f 36/52/54 8/10/54 6/7/55
f 39/57/56 12/248/8 14/17/56
f 12/248/8 39/57/56 48/249/132
f 39/57/56 61/250/56 48/249/132
f 61/251/7 39/239/7 62/252/135
f 39/239/7 9/11/7 41/59/58
f 62/252/135 39/239/7 63/253/136
f 9/11/7 77/254/7 70/255/137
f 69/256/138 68/257/7 9/11/7
f 68/257/7 40/58/57 9/11/7
f 9/11/7 70/255/137 69/256/138
f 63/253/136 39/239/7 59/258/7
f 60/259/139 59/258/7 39/239/7
f 60/259/139 39/239/7 41/59/58
f 77/260/91 9/240/91 45/261/104
f 9/240/91 13/42/9 45/261/104
f 47/65/64 46/64/63 42/87/59
f 46/64/63 80/113/84 84/262/140
f 52/263/67 76/264/81 87/265/94
f 56/79/62 52/83/62 59/80/62
f 52/266/67 87/267/94 53/268/68
f 52/83/62 48/66/62 61/84/62
f 42/87/59 51/69/74 64/88/74
f 50/104/76 91/269/69 66/270/77
f 47/65/64 73/100/74 55/271/70
f 42/87/59 90/272/141 73/100/74
f 56/75/71 55/74/70 78/273/82
f 45/63/62 48/66/62 46/64/63
f 56/101/71 74/103/79 92/274/142
f 50/104/76 52/70/67 54/72/69
f 51/69/74 50/68/76 67/91/74
f 56/101/71 92/274/142 76/106/81
f 42/87/59 89/275/74 90/272/141
f 45/63/62 56/79/62 70/94/62
f 45/63/62 47/65/64 56/79/62
f 50/104/76 75/105/80 91/269/69
f 42/87/59 65/89/75 89/275/74
f 46/64/63 49/67/65 79/112/83
f 46/114/63 84/276/140 43/115/60
f 42/60/59 44/62/61 81/117/85
f 49/119/65 51/277/66 81/120/86
f 44/122/7 93/164/107 82/123/87
f 84/128/91 94/278/91 85/129/91
f 71/131/10 88/141/97 86/132/92
f 55/160/104 86/279/92 58/161/73
f 54/154/56 76/153/81 88/147/97
f 43/163/7 85/280/107 93/164/107
f 80/127/10 83/126/90 94/165/108
f 79/169/89 82/168/87 83/281/90
f 96/173/91 119/282/91 98/174/91
f 99/176/111 111/283/111 100/177/111
f 100/179/56 111/284/56 102/180/56
f 101/182/112 100/285/112 103/183/112
f 108/188/116 119/208/116 96/189/117
f 109/191/119 111/195/116 99/192/116
f 109/191/119 105/211/124 102/194/120
f 105/286/113 109/287/143 115/288/144
f 107/196/115 106/289/114 112/197/56
f 113/199/121 108/290/122 112/200/122
f 110/202/123 128/233/123 115/203/122
f 116/205/122 113/199/121 114/201/121
f 108/188/116 113/230/131 118/207/116
f 120/209/116 110/193/116 99/192/116
f 105/211/124 107/190/118 96/189/117
f 97/212/112 98/291/112 122/213/112
f 123/215/112 124/292/112 101/182/112
f 98/216/125 119/293/125 118/217/111
f 124/219/126 121/294/126 99/176/126
f 102/220/110 96/171/110 104/221/110
f 118/217/129 127/226/129 126/225/129
f 127/226/125 121/294/130 124/219/130
f 122/213/112 126/228/112 125/227/112
f 126/228/112 124/292/112 123/215/112
f 116/229/116 127/231/116 118/207/116
f 120/209/116 121/210/116 127/231/116
f 120/232/121 129/234/121 128/233/123
f 116/205/122 117/206/122 129/234/121
f 94/295/108 83/296/90 85/297/107
f 83/296/90 82/298/87 93/299/107
f 86/300/92 88/301/145 58/302/73
f 58/302/73 88/301/145 76/303/106
f 85/297/107 83/296/90 93/299/107
f 128/304/146 105/305/113 115/306/144
f 106/307/114 114/308/116 112/309/116
f 106/307/114 128/304/146 129/310/116
f 106/307/114 117/311/116 114/308/116
f 106/307/114 129/310/116 117/311/116
f 128/304/146 106/307/114 105/305/113
